<?xml version="1.0" encoding="UTF-8" standalone="no"?>
<!-- Created with Inkscape (http://www.inkscape.org/) -->

<svg
   xmlns:dc="http://purl.org/dc/elements/1.1/"
   xmlns:cc="http://creativecommons.org/ns#"
   xmlns:rdf="http://www.w3.org/1999/02/22-rdf-syntax-ns#"
   xmlns:svg="http://www.w3.org/2000/svg"
   xmlns="http://www.w3.org/2000/svg"
   xmlns:sodipodi="http://sodipodi.sourceforge.net/DTD/sodipodi-0.dtd"
   xmlns:inkscape="http://www.inkscape.org/namespaces/inkscape"
   width="1052.3622"
   height="744.09448"
   id="svg2998"
   version="1.1"
   inkscape:version="0.48.1 r9760"
   sodipodi:docname="faceplate.svg">
  <defs
     id="defs3000" />
  <sodipodi:namedview
     inkscape:document-units="mm"
     pagecolor="#ffffff"
     bordercolor="#666666"
     borderopacity="1.0"
     inkscape:pageopacity="0.0"
     inkscape:pageshadow="2"
     inkscape:zoom="1"
     inkscape:cx="218.97379"
     inkscape:cy="595.20397"
     inkscape:current-layer="layer1"
     id="namedview3002"
     showgrid="false"
     showguides="false"
     inkscape:guide-bbox="true"
     inkscape:window-width="1680"
     inkscape:window-height="1002"
     inkscape:window-x="0"
     inkscape:window-y="22"
     inkscape:window-maximized="0"
     units="in"
     width="6in">
    <sodipodi:guide
       orientation="1,0"
       position="2.9232283,661.5"
       id="guide3007" />
    <sodipodi:guide
       orientation="1,0"
       position="31.889764,660.50079"
       id="guide3009" />
    <sodipodi:guide
       orientation="1,0"
       position="42.519685,657.49961"
       id="guide3011" />
    <sodipodi:guide
       orientation="0,1"
       position="3.5433071,741.17126"
       id="guide3015" />
    <sodipodi:guide
       orientation="0,1"
       position="93.5,701.5748"
       id="guide3017" />
    <sodipodi:guide
       orientation="0,1"
       position="84,712.20472"
       id="guide3019" />
    <sodipodi:guide
       orientation="1,0"
       position="14.173228,740.55118"
       id="guide3021" />
    <sodipodi:guide
       orientation="0,1"
       position="75,729.92126"
       id="guide3023" />
    <sodipodi:guide
       orientation="0,1"
       position="151,706.88976"
       id="guide3029" />
    <sodipodi:guide
       orientation="1,0"
       position="361.41732,667.99843"
       id="guide3035" />
    <sodipodi:guide
       orientation="1,0"
       position="372.04724,759.00118"
       id="guide3037" />
    <sodipodi:guide
       orientation="0,1"
       position="132,512.00787"
       id="guide3070" />
    <sodipodi:guide
       orientation="0,1"
       position="173.5,506.69291"
       id="guide3072" />
    <sodipodi:guide
       orientation="0,1"
       position="172.5,517.32283"
       id="guide3074" />
    <sodipodi:guide
       orientation="1,0"
       position="387.99213,639.99921"
       id="guide3082" />
    <sodipodi:guide
       orientation="0,1"
       position="161,609.44882"
       id="guide3084" />
    <sodipodi:guide
       orientation="0,1"
       position="160,680.31496"
       id="guide3086" />
    <sodipodi:guide
       orientation="0,1"
       position="180,538.58268"
       id="guide3088" />
    <sodipodi:guide
       orientation="1,0"
       position="242.71654,637.50118"
       id="guide3096" />
    <sodipodi:guide
       orientation="1,0"
       position="396.85039,701.5748"
       id="guide3100" />
    <sodipodi:guide
       orientation="0,1"
       position="161.5,503.14961"
       id="guide3104" />
    <sodipodi:guide
       orientation="0,1"
       position="426,627.16535"
       id="guide3874" />
    <sodipodi:guide
       orientation="0,1"
       position="398.62205,591.73228"
       id="guide3876" />
    <sodipodi:guide
       orientation="1,0"
       position="405.70866,550.49882"
       id="guide3878" />
    <sodipodi:guide
       orientation="1,0"
       position="442.91339,591.73228"
       id="guide3880" />
    <sodipodi:guide
       orientation="0,1"
       position="427,644.88189"
       id="guide3884" />
    <sodipodi:guide
       orientation="0,1"
       position="407.48031,574.01575"
       id="guide3888" />
    <sodipodi:guide
       orientation="1,0"
       position="154.13386,450.99921"
       id="guide3892" />
    <sodipodi:guide
       orientation="1,0"
       position="331.29921,441.99921"
       id="guide3894" />
    <sodipodi:guide
       orientation="0,1"
       position="259,492.51969"
       id="guide3896" />
    <sodipodi:guide
       orientation="1,0"
       position="453.54331,627.16535"
       id="guide3898" />
    <sodipodi:guide
       orientation="1,0"
       position="471.25984,729.92126"
       id="guide3902" />
    <sodipodi:guide
       orientation="1,0"
       position="482.50984,712.20472"
       id="guide3904" />
    <sodipodi:guide
       orientation="0,1"
       position="240.5,364.96063"
       id="guide3906" />
    <sodipodi:guide
       orientation="1,0"
       position="27.46063,438.5"
       id="guide3908" />
    <sodipodi:guide
       orientation="1,0"
       position="90.354331,439.50118"
       id="guide3910" />
    <sodipodi:guide
       orientation="1,0"
       position="139.96063,424.99843"
       id="guide3912" />
    <sodipodi:guide
       orientation="1,0"
       position="40.748031,527.49921"
       id="guide3914" />
    <sodipodi:guide
       orientation="0,1"
       position="112.99961,478.34646"
       id="guide3918" />
    <sodipodi:guide
       orientation="0,1"
       position="123.5,379.13386"
       id="guide3920" />
    <sodipodi:guide
       orientation="1,0"
       position="345.47244,430.50118"
       id="guide3924" />
    <sodipodi:guide
       orientation="1,0"
       position="441.14173,457.50118"
       id="guide3926" />
    <sodipodi:guide
       orientation="0,1"
       position="290.5,354.33071"
       id="guide3930" />
    <sodipodi:guide
       orientation="1,0"
       position="157.67717,461.5"
       id="guide3936" />
    <sodipodi:guide
       orientation="1,0"
       position="168.30709,449.5"
       id="guide3938" />
    <sodipodi:guide
       orientation="1,0"
       position="327.75591,465.49843"
       id="guide3940" />
    <sodipodi:guide
       orientation="1,0"
       position="317.12598,451.49882"
       id="guide3942" />
    <sodipodi:guide
       orientation="0,1"
       position="186,474.80315"
       id="guide3944" />
    <sodipodi:guide
       orientation="0,1"
       position="198.5,464.17323"
       id="guide3946" />
    <sodipodi:guide
       orientation="0,1"
       position="207.5,382.67717"
       id="guide3948" />
    <sodipodi:guide
       orientation="0,1"
       position="218,393.30709"
       id="guide3950" />
    <sodipodi:guide
       orientation="0,1"
       position="262.5,403.93701"
       id="guide3964" />
    <sodipodi:guide
       orientation="0,1"
       position="242.71654,336.61417"
       id="guide3966" />
    <sodipodi:guide
       orientation="0,1"
       position="283.5,325.36417"
       id="guide3968" />
    <sodipodi:guide
       orientation="1,0"
       position="182.08,428.41832"
       id="guide3975" />
    <sodipodi:guide
       orientation="1,0"
       position="184.28971,425.85506"
       id="guide3977" />
    <sodipodi:guide
       orientation="1,0"
       position="199.05056,416.83945"
       id="guide3979" />
    <sodipodi:guide
       orientation="1,0"
       position="201.17188,414.98329"
       id="guide3981" />
    <sodipodi:guide
       orientation="1,0"
       position="266.1875,411.1875"
       id="guide3990" />
    <sodipodi:guide
       orientation="1,0"
       position="268.22835,418.99961"
       id="guide3992" />
    <sodipodi:guide
       orientation="1,0"
       position="301.1391,412.50842"
       id="guide3997" />
    <sodipodi:guide
       orientation="1,0"
       position="303.4372,409.5916"
       id="guide3999" />
    <sodipodi:guide
       orientation="1,0"
       position="423.4252,670.00039"
       id="guide4283" />
    <sodipodi:guide
       orientation="1,0"
       position="428.74016,457.50118"
       id="guide4291" />
    <sodipodi:guide
       orientation="0,1"
       position="230,453.54331"
       id="guide4293" />
    <sodipodi:guide
       orientation="0,1"
       position="421.65354,689.17323"
       id="guide4295" />
    <sodipodi:guide
       orientation="1,0"
       position="418.11024,670.00039"
       id="guide4302" />
    <sodipodi:guide
       orientation="1,0"
       position="444.68504,667.86378"
       id="guide4304" />
    <sodipodi:guide
       orientation="1,0"
       position="220.61732,662.91261"
       id="guide4306" />
    <sodipodi:guide
       orientation="0,1"
       position="421.65354,694.48819"
       id="guide4308" />
    <sodipodi:guide
       orientation="0,1"
       position="421.65354,683.85827"
       id="guide4310" />
    <sodipodi:guide
       orientation="0,1"
       position="453.54331,535.03937"
       id="guide4314" />
    <sodipodi:guide
       orientation="0,1"
       position="471.25984,524.40945"
       id="guide4316" />
    <sodipodi:guide
       orientation="1,0"
       position="112.5,660.49998"
       id="guide3123" />
    <sodipodi:guide
       orientation="1,0"
       position="28.346457,660.50079"
       id="guide3131" />
    <sodipodi:guide
       orientation="1,0"
       position="488.97638,660.49998"
       id="guide3143" />
    <sodipodi:guide
       orientation="1,0"
       position="666.14173,661.00039"
       id="guide3145" />
    <sodipodi:guide
       orientation="0,1"
       position="588.99998,705.73819"
       id="guide3151" />
    <sodipodi:guide
       orientation="0,1"
       position="602.99998,723.45472"
       id="guide3153" />
    <sodipodi:guide
       orientation="0,1"
       position="570.49998,728.76969"
       id="guide3168" />
    <sodipodi:guide
       orientation="0,1"
       position="593.61613,718.13976"
       id="guide3170" />
    <sodipodi:guide
       orientation="0,1"
       position="584.77729,676.77165"
       id="guide3266" />
    <sodipodi:guide
       orientation="0,1"
       position="576.99912,666.14173"
       id="guide3268" />
    <sodipodi:guide
       orientation="0,1"
       position="588.31283,662.59843"
       id="guide3270" />
    <sodipodi:guide
       orientation="1,0"
       position="673.22835,772.16058"
       id="guide3300" />
    <sodipodi:guide
       orientation="1,0"
       position="850.3937,760.13858"
       id="guide3302" />
    <sodipodi:guide
       orientation="0,1"
       position="-48.08326,315.35433"
       id="guide3306" />
    <sodipodi:guide
       orientation="0,1"
       position="-59.396968,138.18898"
       id="guide3308" />
  </sodipodi:namedview>
  <metadata
     id="metadata3004">
    <rdf:RDF>
      <cc:Work
         rdf:about="">
        <dc:format>image/svg+xml</dc:format>
        <dc:type
           rdf:resource="http://purl.org/dc/dcmitype/StillImage" />
        <dc:title />
      </cc:Work>
    </rdf:RDF>
  </metadata>
  <g
     inkscape:label="Layer 1"
     inkscape:groupmode="layer"
     id="layer1"
     style="display:inline"
     transform="translate(0,4.8242187e-4)">
    <path
       sodipodi:type="arc"
       style="fill:none;stroke:#000000;stroke-width:1px;stroke-linecap:butt;stroke-linejoin:miter;stroke-opacity:1"
       id="path3025"
       sodipodi:cx="37.204723"
       sodipodi:cy="37.204723"
       sodipodi:rx="5.3149605"
       sodipodi:ry="5.314961"
       d="m 42.519684,37.204723 c 0,2.935372 -2.379589,5.314961 -5.314961,5.314961 -2.935371,0 -5.31496,-2.379589 -5.31496,-5.314961 0,-2.935372 2.379589,-5.314961 5.31496,-5.314961 2.935372,0 5.314961,2.379589 5.314961,5.314961 z" />
    <path
       sodipodi:type="arc"
       style="fill:none;stroke:#000000;stroke-width:0.70866144;stroke-miterlimit:4;stroke-opacity:1;stroke-dasharray:none"
       id="path3900"
       sodipodi:cx="448.22836"
       sodipodi:cy="37.204723"
       sodipodi:rx="5.31496"
       sodipodi:ry="5.31496"
       d="m 453.54332,37.204723 c 0,2.935372 -2.37959,5.31496 -5.31496,5.31496 -2.93537,0 -5.31496,-2.379588 -5.31496,-5.31496 0,-2.935371 2.37959,-5.31496 5.31496,-5.31496 2.93537,0 5.31496,2.379589 5.31496,5.31496 z" />
    <path
       sodipodi:type="arc"
       style="fill:none;stroke:#000000;stroke-width:0.70866144;stroke-miterlimit:4;stroke-opacity:1;stroke-dasharray:none"
       id="path3922"
       sodipodi:cx="90.354332"
       sodipodi:cy="315.35431"
       sodipodi:rx="49.6063"
       sodipodi:ry="49.6063"
       d="m 139.96063,315.35431 c 0,27.3968 -22.20949,49.6063 -49.606298,49.6063 -27.396803,0 -49.6063,-22.2095 -49.6063,-49.6063 0,-27.3968 22.209497,-49.6063 49.6063,-49.6063 27.396808,0 49.606298,22.2095 49.606298,49.6063 z" />
    <path
       sodipodi:type="arc"
       style="fill:none;stroke:#000000;stroke-width:0.70866144;stroke-miterlimit:4;stroke-opacity:1;stroke-dasharray:none"
       id="path3928"
       sodipodi:cx="394.1929"
       sodipodi:cy="315.35431"
       sodipodi:rx="48.720474"
       sodipodi:ry="49.6063"
       d="m 442.91338,315.35431 c 0,27.3968 -21.8129,49.6063 -48.72048,49.6063 -26.90757,0 -48.72047,-22.2095 -48.72047,-49.6063 0,-27.3968 21.8129,-49.6063 48.72047,-49.6063 26.90758,0 48.72048,22.2095 48.72048,49.6063 z"
       transform="matrix(1.0181819,0,0,1,-6.2813505,0)" />
    <path
       sodipodi:type="arc"
       style="fill:none;stroke:#000000;stroke-width:0.70866144;stroke-miterlimit:4;stroke-opacity:1;stroke-dasharray:none"
       id="path3932"
       sodipodi:cx="448.22836"
       sodipodi:cy="384.44882"
       sodipodi:rx="5.31496"
       sodipodi:ry="5.31496"
       d="m 453.54332,384.44882 c 0,2.93537 -2.37959,5.31496 -5.31496,5.31496 -2.93537,0 -5.31496,-2.37959 -5.31496,-5.31496 0,-2.93537 2.37959,-5.31496 5.31496,-5.31496 2.93537,0 5.31496,2.37959 5.31496,5.31496 z" />
    <path
       sodipodi:type="arc"
       style="fill:none;stroke:#000000;stroke-width:0.70866144;stroke-miterlimit:4;stroke-opacity:1;stroke-dasharray:none"
       id="path3934"
       sodipodi:cx="37.204723"
       sodipodi:cy="384.44882"
       sodipodi:rx="5.3149605"
       sodipodi:ry="5.31496"
       d="m 42.519684,384.44882 c 0,2.93537 -2.379589,5.31496 -5.314961,5.31496 -2.935371,0 -5.31496,-2.37959 -5.31496,-5.31496 0,-2.93537 2.379589,-5.31496 5.31496,-5.31496 2.935372,0 5.314961,2.37959 5.314961,5.31496 z" />
    <path
       sodipodi:type="arc"
       style="fill:none;stroke:#000000;stroke-width:0.70866144;stroke-miterlimit:4;stroke-opacity:1;stroke-dasharray:none"
       id="path3952"
       sodipodi:cx="162.99213"
       sodipodi:cy="356.10236"
       sodipodi:rx="5.31496"
       sodipodi:ry="5.31496"
       d="m 168.30709,356.10236 c 0,2.93537 -2.37959,5.31496 -5.31496,5.31496 -2.93537,0 -5.31496,-2.37959 -5.31496,-5.31496 0,-2.93538 2.37959,-5.31496 5.31496,-5.31496 2.93537,0 5.31496,2.37958 5.31496,5.31496 z" />
    <path
       sodipodi:type="arc"
       style="fill:none;stroke:#000000;stroke-width:0.70866144;stroke-miterlimit:4;stroke-opacity:1;stroke-dasharray:none"
       id="path3954"
       sodipodi:cx="162.99213"
       sodipodi:cy="274.60629"
       sodipodi:rx="5.31496"
       sodipodi:ry="5.31496"
       d="m 168.30709,274.60629 c 0,2.93537 -2.37959,5.31496 -5.31496,5.31496 -2.93537,0 -5.31496,-2.37959 -5.31496,-5.31496 0,-2.93537 2.37959,-5.31496 5.31496,-5.31496 2.93537,0 5.31496,2.37959 5.31496,5.31496 z" />
    <path
       sodipodi:type="arc"
       style="fill:none;stroke:#000000;stroke-width:0.70866144;stroke-miterlimit:4;stroke-opacity:1;stroke-dasharray:none"
       id="path3956"
       sodipodi:cx="322.44095"
       sodipodi:cy="274.60629"
       sodipodi:rx="5.3149648"
       sodipodi:ry="5.31496"
       d="m 327.75591,274.60629 c 0,2.93537 -2.37959,5.31496 -5.31496,5.31496 -2.93538,0 -5.31497,-2.37959 -5.31497,-5.31496 0,-2.93537 2.37959,-5.31496 5.31497,-5.31496 2.93537,0 5.31496,2.37959 5.31496,5.31496 z" />
    <path
       sodipodi:type="arc"
       style="fill:none;stroke:#000000;stroke-width:0.70866144;stroke-miterlimit:4;stroke-opacity:1;stroke-dasharray:none"
       id="path3958"
       sodipodi:cx="322.44095"
       sodipodi:cy="356.10236"
       sodipodi:rx="5.3149648"
       sodipodi:ry="5.31496"
       d="m 327.75591,356.10236 c 0,2.93537 -2.37959,5.31496 -5.31496,5.31496 -2.93538,0 -5.31497,-2.37959 -5.31497,-5.31496 0,-2.93538 2.37959,-5.31496 5.31497,-5.31496 2.93537,0 5.31496,2.37958 5.31496,5.31496 z" />
    <path
       style="fill:#000000"
       d="m 176.08009,349.96761 c 1.31994,-8.49999 4.96411,-19.88088 8.09809,-25.29088 7.53998,-13.01581 32.93219,-33.17227 54.38393,-43.17018 21.85732,-10.187 66.34336,-24.01088 76.56387,-23.79195 4.47336,0.0957 -4.62477,3.73319 -21.37694,8.54639 -53.66428,15.41871 -87.92416,34.86861 -103.47106,58.74229 -8.75336,13.44155 -12.10756,32.71352 -5.69366,32.71352 8.71038,0 40.39836,-24.71911 61.98757,-48.35523 4.29251,-4.69948 7.80454,-7.3768 7.80454,-5.94966 0,5.2384 -48.25134,47.29514 -62.54493,54.51529 -8.10812,4.09572 -15.50914,7.45758 -16.44669,7.47081 -0.93756,0.0114 -0.62469,-6.93042 0.69528,-15.4304 z m 30.17426,12.053 c 19.7283,-5.86462 40.38096,-16.27246 50.13242,-25.26404 10.56688,-9.74349 24.06574,-33.65684 24.41458,-43.25069 0.12833,-3.5316 1.4772,-8.73267 2.99734,-11.55797 1.97485,-3.67046 2.36425,-1.23101 1.36401,8.54568 -3.73761,36.53201 -37.77147,68.23374 -78.90835,73.50118 l -11.66595,1.49379 11.66595,-3.46795 z"
       id="path4024"
       inkscape:connector-curvature="0" />
    <path
       style="fill:#000000"
       d=""
       id="path4022"
       inkscape:connector-curvature="0" />
    <rect
       style="fill:none;stroke:#000000;stroke-width:0.70866144;stroke-miterlimit:4;stroke-opacity:1;stroke-dasharray:none"
       id="rect4275"
       width="479.58661"
       height="415.8071"
       x="2.9232283"
       y="2.9232223" />
    <rect
       style="fill:none;stroke:#000000;stroke-width:0.70866144;stroke-miterlimit:4;stroke-opacity:1;stroke-dasharray:none"
       id="rect4281"
       width="347.24408"
       height="141.73228"
       x="28.346457"
       y="63.779522" />
    <text
       xml:space="preserve"
       style="font-size:61.59537888px;font-style:normal;font-variant:normal;font-weight:normal;font-stretch:normal;text-align:start;line-height:125%;letter-spacing:0px;word-spacing:0px;writing-mode:lr-tb;text-anchor:start;fill:#000000;fill-opacity:1;stroke:none;font-family:Copperplate;-inkscape-font-specification:Copperplate"
       x="-376.65027"
       y="2.9719408"
       id="text4320"
       sodipodi:linespacing="125%"
       transform="scale(1.016666,0.98360722)"><tspan
         sodipodi:role="line"
         id="tspan4322"
         x="-376.65027"
         y="2.9719408">roominator</tspan></text>
    <path
       sodipodi:type="arc"
       style="fill:none;stroke:#000000;stroke-width:0.70866144;stroke-miterlimit:4;stroke-opacity:1;stroke-dasharray:none"
       id="path3121"
       sodipodi:cx="37.204723"
       sodipodi:cy="232.08661"
       sodipodi:rx="5.3149605"
       sodipodi:ry="5.31496"
       d="m 42.519684,232.08661 c 0,2.93537 -2.379589,5.31496 -5.314961,5.31496 -2.935371,0 -5.31496,-2.37959 -5.31496,-5.31496 0,-2.93537 2.379589,-5.31496 5.31496,-5.31496 2.935372,0 5.314961,2.37959 5.314961,5.31496 z" />
    <path
       sodipodi:type="arc"
       style="fill:none;stroke:#000000;stroke-width:0.70866144;stroke-miterlimit:4;stroke-opacity:1;stroke-dasharray:none"
       id="path3127"
       sodipodi:cx="366.73227"
       sodipodi:cy="232.08661"
       sodipodi:rx="5.31496"
       sodipodi:ry="5.31496"
       d="m 372.04723,232.08661 c 0,2.93537 -2.37959,5.31496 -5.31496,5.31496 -2.93537,0 -5.31496,-2.37959 -5.31496,-5.31496 0,-2.93537 2.37959,-5.31496 5.31496,-5.31496 2.93537,0 5.31496,2.37959 5.31496,5.31496 z" />
    <path
       sodipodi:type="arc"
       style="fill:none;stroke:#000000;stroke-width:0.70866144;stroke-miterlimit:4;stroke-opacity:1;stroke-dasharray:none"
       id="path3129"
       sodipodi:cx="366.73227"
       sodipodi:cy="37.204723"
       sodipodi:rx="5.31496"
       sodipodi:ry="5.31496"
       d="m 372.04723,37.204723 c 0,2.935372 -2.37959,5.31496 -5.31496,5.31496 -2.93537,0 -5.31496,-2.379588 -5.31496,-5.31496 0,-2.935371 2.37959,-5.31496 5.31496,-5.31496 2.93537,0 5.31496,2.379589 5.31496,5.31496 z" />
    <path
       sodipodi:type="arc"
       style="fill:none;stroke:#000000;stroke-width:0.70866144;stroke-miterlimit:4;stroke-opacity:1;stroke-dasharray:none"
       id="path3133"
       sodipodi:cx="423.4252"
       sodipodi:cy="81.496056"
       sodipodi:rx="17.716536"
       sodipodi:ry="17.716536"
       d="m 441.14174,81.496056 c 0,9.784572 -7.93197,17.716535 -17.71654,17.716535 -9.78457,0 -17.71653,-7.931963 -17.71653,-17.716535 0,-9.784573 7.93196,-17.716536 17.71653,-17.716536 9.78457,0 17.71654,7.931963 17.71654,17.716536 z" />
    <path
       sodipodi:type="arc"
       style="fill:none;stroke:#000000;stroke-width:0.70866144;stroke-miterlimit:4;stroke-opacity:1;stroke-dasharray:none"
       id="path3135"
       sodipodi:cx="423.4252"
       sodipodi:cy="134.64566"
       sodipodi:rx="17.716536"
       sodipodi:ry="17.716536"
       d="m 441.14174,134.64566 c 0,9.78457 -7.93197,17.71654 -17.71654,17.71654 -9.78457,0 -17.71653,-7.93197 -17.71653,-17.71654 0,-9.78457 7.93196,-17.71654 17.71653,-17.71654 9.78457,0 17.71654,7.93197 17.71654,17.71654 z" />
    <path
       sodipodi:type="arc"
       style="fill:none;stroke:#000000;stroke-width:0.70866144;stroke-miterlimit:4;stroke-opacity:1;stroke-dasharray:none"
       id="path3137"
       sodipodi:cx="423.4252"
       sodipodi:cy="187.79527"
       sodipodi:rx="17.716536"
       sodipodi:ry="17.716536"
       d="m 441.14174,187.79527 c 0,9.78458 -7.93197,17.71654 -17.71654,17.71654 -9.78457,0 -17.71653,-7.93196 -17.71653,-17.71654 0,-9.78457 7.93196,-17.71653 17.71653,-17.71653 9.78457,0 17.71654,7.93196 17.71654,17.71653 z" />
    <path
       sodipodi:type="arc"
       style="fill:none;stroke:#000000;stroke-width:0.70866144;stroke-miterlimit:4;stroke-opacity:1;stroke-dasharray:none"
       id="path3139"
       sodipodi:cx="423.4252"
       sodipodi:cy="54.921253"
       sodipodi:rx="5.31496"
       sodipodi:ry="5.31496"
       d="m 428.74016,54.921253 c 0,2.935372 -2.37959,5.31496 -5.31496,5.31496 -2.93537,0 -5.31496,-2.379588 -5.31496,-5.31496 0,-2.935371 2.37959,-5.31496 5.31496,-5.31496 2.93537,0 5.31496,2.379589 5.31496,5.31496 z" />
    <path
       sodipodi:type="arc"
       style="fill:none;stroke:#000000;stroke-width:0.70866144;stroke-miterlimit:4;stroke-opacity:1;stroke-dasharray:none"
       id="path3141"
       sodipodi:cx="423.4252"
       sodipodi:cy="214.37007"
       sodipodi:rx="5.31496"
       sodipodi:ry="5.31496"
       d="m 428.74016,214.37007 c 0,2.93537 -2.37959,5.31496 -5.31496,5.31496 -2.93537,0 -5.31496,-2.37959 -5.31496,-5.31496 0,-2.93537 2.37959,-5.31496 5.31496,-5.31496 2.93537,0 5.31496,2.37959 5.31496,5.31496 z" />
    <path
       inkscape:connector-curvature="0"
       style="fill:none;stroke:#000000;stroke-width:0.70866144;stroke-miterlimit:4;stroke-opacity:1;stroke-dasharray:none"
       d="m -118.65655,-96.474908 0,35.406248 11.25,0 0,-17.718748 11.21875,0 0,17.718748 31.875,0 0,-35.406248 -31.875,0 -11.21875,0 -11.25,0 z m 38.40625,12.375 c 2.93537,0 5.3125,2.377126 5.3125,5.3125 0,2.935378 -2.37713,5.343748 -5.3125,5.343748 -2.93537,0 -5.3125,-2.40837 -5.3125,-5.343748 0,-2.935374 2.37713,-5.3125 5.3125,-5.3125 z"
       id="path3224" />
    <path
       inkscape:connector-curvature="0"
       id="path3278"
       d="m -148.9279,-71.19809 c -4.89229,0 -8.84375,3.95146 -8.84375,8.84375 0,4.89228 3.95146,8.875 8.84375,8.875 4.89229,0 8.875,-3.98272 8.875,-8.875 0,-4.89229 -3.98271,-8.84375 -8.875,-8.84375 z m 0,3.53125 c 2.93537,0 5.3125,2.37712 5.3125,5.3125 0,2.93537 -2.37713,5.3125 -5.3125,5.3125 -2.93537,0 -5.3125,-2.37713 -5.3125,-5.3125 0,-2.93538 2.37713,-5.3125 5.3125,-5.3125 z"
       style="fill:none;stroke:#000000;stroke-width:0.70866144;stroke-miterlimit:4;stroke-opacity:1;stroke-dasharray:none" />
    <rect
       style="fill:none;stroke:#000000;stroke-width:0.70866144;stroke-miterlimit:4;stroke-opacity:1;stroke-dasharray:none"
       id="rect3298"
       width="177.16534"
       height="415.8071"
       x="488.97638"
       y="2.9232223" />
    <rect
       style="fill:none;stroke:#000000;stroke-width:0.70866144;stroke-miterlimit:4;stroke-opacity:1;stroke-dasharray:none"
       id="rect3304"
       width="177.16534"
       height="415.8071"
       x="673.22833"
       y="2.9232223" />
    <rect
       style="fill:none;stroke:#000000;stroke-width:0.70866144;stroke-miterlimit:4;stroke-opacity:1;stroke-dasharray:none"
       id="rect3310"
       width="457.08661"
       height="177.16534"
       x="14.173228"
       y="428.74014" />
  </g>
</svg>
