<?xml version="1.0" encoding="UTF-8" standalone="no"?>
<!-- Created with Inkscape (http://www.inkscape.org/) -->

<svg
   xmlns:dc="http://purl.org/dc/elements/1.1/"
   xmlns:cc="http://creativecommons.org/ns#"
   xmlns:rdf="http://www.w3.org/1999/02/22-rdf-syntax-ns#"
   xmlns:svg="http://www.w3.org/2000/svg"
   xmlns="http://www.w3.org/2000/svg"
   xmlns:sodipodi="http://sodipodi.sourceforge.net/DTD/sodipodi-0.dtd"
   xmlns:inkscape="http://www.inkscape.org/namespaces/inkscape"
   width="1488.189"
   height="1052.3622"
   id="svg3312"
   version="1.1"
   inkscape:version="0.48.1 r9760"
   sodipodi:docname="in-wall-enclosure.svg">
  <defs
     id="defs3314" />
  <sodipodi:namedview
     id="base"
     pagecolor="#ffffff"
     bordercolor="#666666"
     borderopacity="1.0"
     inkscape:pageopacity="0.0"
     inkscape:pageshadow="2"
     inkscape:zoom="0.77729893"
     inkscape:cx="531.17768"
     inkscape:cy="217.41957"
     inkscape:document-units="mm"
     inkscape:current-layer="layer1"
     showgrid="false"
     units="mm"
     showguides="false"
     inkscape:guide-bbox="true"
     inkscape:window-width="1680"
     inkscape:window-height="1006"
     inkscape:window-x="0"
     inkscape:window-y="0"
     inkscape:window-maximized="0"
     guidetolerance="10"
     width="297mm">
    <sodipodi:guide
       orientation="1,0"
       position="1615.748,1275.9732"
       id="guide14101" />
    <sodipodi:guide
       orientation="1,0"
       position="2281.8898,1287.287"
       id="guide14105" />
    <sodipodi:guide
       orientation="0,1"
       position="1895.7533,1077.1654"
       id="guide14113" />
    <sodipodi:guide
       orientation="0,1"
       position="1823.9811,1693.7008"
       id="guide14115" />
    <sodipodi:guide
       orientation="0,1"
       position="2232.5,966.9685"
       id="guide14190" />
    <sodipodi:guide
       orientation="0,1"
       position="2233.5,1080.3543"
       id="guide14194" />
    <sodipodi:guide
       orientation="0,1"
       position="2244.5,1020.8268"
       id="guide14196" />
    <sodipodi:guide
       orientation="0,1"
       position="1960.5,1101.9685"
       id="guide14219" />
    <sodipodi:guide
       orientation="1,0"
       position="2399.1732,1285.5012"
       id="guide14226" />
    <sodipodi:guide
       orientation="1,0"
       position="2346.0236,1282"
       id="guide14232" />
    <sodipodi:guide
       orientation="0,1"
       position="2212.8907,985.3937"
       id="guide14292" />
    <sodipodi:guide
       orientation="0,1"
       position="2207.2338,995.31496"
       id="guide14294" />
    <sodipodi:guide
       orientation="1,0"
       position="2380.748,1459.4669"
       id="guide14314" />
    <sodipodi:guide
       orientation="1,0"
       position="2370.8268,1491.9945"
       id="guide14316" />
    <sodipodi:guide
       orientation="0,1"
       position="2328.5026,921.25984"
       id="guide14324" />
    <sodipodi:guide
       orientation="1,0"
       position="2444.5276,1443.9118"
       id="guide14326" />
    <sodipodi:guide
       orientation="1,0"
       position="2877.5197,1488.4598"
       id="guide14328" />
    <sodipodi:guide
       orientation="1,0"
       position="2433.8976,1623.5185"
       id="guide14334" />
    <sodipodi:guide
       orientation="1,0"
       position="2888.1496,1453.8115"
       id="guide14340" />
    <sodipodi:guide
       orientation="1,0"
       position="2466.1417,1617.1532"
       id="guide14347" />
    <sodipodi:guide
       orientation="1,0"
       position="2476.7717,1622.8101"
       id="guide14349" />
    <sodipodi:guide
       orientation="1,0"
       position="2490.5906,1632.0012"
       id="guide14351" />
    <sodipodi:guide
       orientation="1,0"
       position="2855.9056,1605.1181"
       id="guide14361" />
    <sodipodi:guide
       orientation="1,0"
       position="2845.2756,1630.5882"
       id="guide14363" />
    <sodipodi:guide
       orientation="1,0"
       position="2831.4567,1638.3664"
       id="guide14365" />
    <sodipodi:guide
       orientation="1,0"
       position="2655.7087,1296.8327"
       id="guide14383" />
    <sodipodi:guide
       orientation="1,0"
       position="2643.6614,1266.4276"
       id="guide14385" />
    <sodipodi:guide
       orientation="1,0"
       position="2607.5197,1266.4282"
       id="guide14387" />
    <sodipodi:guide
       orientation="1,0"
       position="2666.3386,1272.7922"
       id="guide14391" />
    <sodipodi:guide
       orientation="1,0"
       position="2678.3858,1272.7922"
       id="guide14393" />
    <sodipodi:guide
       orientation="1,0"
       position="2714.5276,1272.7922"
       id="guide14395" />
    <sodipodi:guide
       orientation="1,0"
       position="2650.3937,1587.4016"
       id="guide14412" />
    <sodipodi:guide
       orientation="1,0"
       position="2671.6536,1594.5258"
       id="guide14414" />
    <sodipodi:guide
       orientation="0,1"
       position="2264.863,1708.2283"
       id="guide3200" />
    <sodipodi:guide
       orientation="1,0"
       position="2586.6142,1471.5"
       id="guide3233" />
    <sodipodi:guide
       orientation="1,0"
       position="2558.2677,1481"
       id="guide3235" />
    <sodipodi:guide
       orientation="1,0"
       position="2565.3543,1478.5016"
       id="guide3245" />
    <sodipodi:guide
       orientation="1,0"
       position="2579.5276,1477.9984"
       id="guide3247" />
    <sodipodi:guide
       orientation="1,0"
       position="2735.4331,1475"
       id="guide3254" />
    <sodipodi:guide
       orientation="1,0"
       position="2742.5197,1483"
       id="guide3256" />
    <sodipodi:guide
       orientation="1,0"
       position="2756.6929,1479.5008"
       id="guide3258" />
    <sodipodi:guide
       orientation="1,0"
       position="2763.7795,1475.5004"
       id="guide3260" />
    <sodipodi:guide
       orientation="1,0"
       position="2526.7323,1188.9992"
       id="guide3521" />
    <sodipodi:guide
       orientation="1,0"
       position="2795.315,1264.6605"
       id="guide3525" />
    <sodipodi:guide
       orientation="0,1"
       position="1937.6494,995.66929"
       id="guide3310" />
    <sodipodi:guide
       orientation="0,1"
       position="1938.71,985.03937"
       id="guide3312" />
    <sodipodi:guide
       orientation="0,1"
       position="1948.8189,1076.811"
       id="guide9317" />
    <sodipodi:guide
       orientation="1,0"
       position="810,877.5"
       id="guide9323" />
    <sodipodi:guide
       orientation="0,1"
       position="810,877.5"
       id="guide9325" />
    <sodipodi:guide
       orientation="1,0"
       position="1637.0079,1721.805"
       id="guide10261" />
    <sodipodi:guide
       orientation="0,1"
       position="1615.748,1672.4409"
       id="guide10263" />
    <sodipodi:guide
       orientation="1,0"
       position="1654.7244,1672.4409"
       id="guide10265" />
    <sodipodi:guide
       orientation="0,1"
       position="1637.0079,1654.7244"
       id="guide10267" />
    <sodipodi:guide
       orientation="1,0"
       position="2260.6299,1654.7244"
       id="guide10271" />
    <sodipodi:guide
       orientation="1,0"
       position="2242.9134,1672.4409"
       id="guide10273" />
    <sodipodi:guide
       orientation="0,1"
       position="2242.9134,1119.685"
       id="guide10277" />
  </sodipodi:namedview>
  <metadata
     id="metadata3317">
    <rdf:RDF>
      <cc:Work
         rdf:about="">
        <dc:format>image/svg+xml</dc:format>
        <dc:type
           rdf:resource="http://purl.org/dc/dcmitype/StillImage" />
        <dc:title></dc:title>
      </cc:Work>
    </rdf:RDF>
  </metadata>
  <g
     inkscape:groupmode="layer"
     id="layer3"
     inkscape:label="etches"
     style="display:inline"
     transform="translate(0,503.15017)" />
  <g
     inkscape:label="cuts"
     inkscape:groupmode="layer"
     id="layer1"
     transform="translate(0,0.0031023)"
     style="display:inline">
    <g
       id="g10313"
       transform="translate(-1611.9604,1076.5667)">
      <path
         transform="translate(0,503.14708)"
         d="m 1788.8386,-1016.9291 c 0,2.9354 -2.3796,5.315 -5.3149,5.315 -2.9354,0 -5.315,-2.3796 -5.315,-5.315 0,-2.9353 2.3796,-5.3149 5.315,-5.3149 2.9353,0 5.3149,2.3796 5.3149,5.3149 z"
         sodipodi:ry="5.31495"
         sodipodi:rx="5.31495"
         sodipodi:cy="-1016.9291"
         sodipodi:cx="1783.5237"
         id="path3891"
         style="fill:none;stroke:#008000;stroke-width:0.35433072;stroke-miterlimit:4;stroke-opacity:1;stroke-dasharray:none"
         sodipodi:type="arc" />
      <path
         transform="translate(0,503.14708)"
         d="m 2118.3662,-1016.9291 c 0,2.9354 -2.3796,5.315 -5.3149,5.315 -2.9354,0 -5.315,-2.3796 -5.315,-5.315 0,-2.9353 2.3796,-5.3149 5.315,-5.3149 2.9353,0 5.3149,2.3796 5.3149,5.3149 z"
         sodipodi:ry="5.31495"
         sodipodi:rx="5.31495"
         sodipodi:cy="-1016.9291"
         sodipodi:cx="2113.0513"
         id="path3897"
         style="fill:none;stroke:#008000;stroke-width:0.35433072;stroke-miterlimit:4;stroke-opacity:1;stroke-dasharray:none"
         sodipodi:type="arc" />
      <path
         transform="translate(0,503.14708)"
         d="m 1788.8386,-822.04724 c 0,2.93536 -2.3796,5.31495 -5.3149,5.31495 -2.9354,0 -5.315,-2.37959 -5.315,-5.31495 0,-2.93537 2.3796,-5.31495 5.315,-5.31495 2.9353,0 5.3149,2.37958 5.3149,5.31495 z"
         sodipodi:ry="5.31495"
         sodipodi:rx="5.31495"
         sodipodi:cy="-822.04724"
         sodipodi:cx="1783.5237"
         id="path3907"
         style="fill:none;stroke:#008000;stroke-width:0.35433072;stroke-miterlimit:4;stroke-opacity:1;stroke-dasharray:none"
         sodipodi:type="arc" />
      <path
         transform="translate(0,503.14708)"
         d="m 2118.3662,-822.04724 c 0,2.93536 -2.3796,5.31495 -5.3149,5.31495 -2.9354,0 -5.315,-2.37959 -5.315,-5.31495 0,-2.93537 2.3796,-5.31495 5.315,-5.31495 2.9353,0 5.3149,2.37958 5.3149,5.31495 z"
         sodipodi:ry="5.31495"
         sodipodi:rx="5.31495"
         sodipodi:cy="-822.04724"
         sodipodi:cx="2113.0513"
         id="path3909"
         style="fill:none;stroke:#008000;stroke-width:0.35433072;stroke-miterlimit:4;stroke-opacity:1;stroke-dasharray:none"
         sodipodi:type="arc" />
      <path
         transform="translate(0,503.14708)"
         d="m 1819.6875,-965.5625 c -3.047,0 -5.5,2.453 -5.5,5.5 l 0,81.125 c 0,3.047 2.453,5.5 5.5,5.5 l 258.2813,0 c 3.047,0 5.5,-2.453 5.5,-5.5 l 0,-81.125 c 0,-3.047 -2.453,-5.5 -5.5,-5.5 l -258.2813,0 z"
         id="path3919"
         style="fill:none;stroke:#0000ff;stroke-width:0.35433072;stroke-miterlimit:4;stroke-opacity:1;stroke-dasharray:none"
         inkscape:original="M 1819.6875 -965.5625 C 1816.6405 -965.5625 1814.1875 -963.1095 1814.1875 -960.0625 L 1814.1875 -878.9375 C 1814.1875 -875.8905 1816.6405 -873.4375 1819.6875 -873.4375 L 2077.9688 -873.4375 C 2081.0158 -873.4375 2083.4688 -875.8905 2083.4688 -878.9375 L 2083.4688 -960.0625 C 2083.4688 -963.1095 2081.0158 -965.5625 2077.9688 -965.5625 L 1819.6875 -965.5625 z "
         inkscape:radius="0"
         sodipodi:type="inkscape:offset" />
      <path
         sodipodi:nodetypes="scsscsssccssssssscsscs"
         style="fill:#000000;stroke:#000000;stroke-width:0.35433072;stroke-miterlimit:4;stroke-opacity:1;stroke-dasharray:none"
         d="m 1877.9528,-157.85293 c 0.6052,-9.6789 3,-21.0748 8.8529,-30.5724 2.9248,-5.8068 18.5232,-22.395 29.6229,-30.1815 16.5463,-11.6073 28.9661,-17.5555 55.7398,-26.6953 24.8703,-8.4901 52.0366,-14.29921 46.2134,-9.882 -0.9826,0.7453 -7.0576,3.0036 -13.5,5.0184 -49.3338,15.4285 -70.2012,24.604 -90.1616,39.6447 -10.9587,8.2576 -19.3363,17.7779 -24.1274,27.4181 -4.2725,8.5968 -6.6485,18.4789 -5.5221,22.9669 0.6368,2.5374 1.0038,2.7289 4.2275,2.2057 8.0146,-1.3005 34.3278,-21.7696 55.3523,-43.0586 9.5152,-9.6349 13.0179,-12.2472 13.0179,-9.7086 0,4.426 -40.6307,40.8466 -57.8734,51.8766 -5.9774,3.8237 -19.2492,10.218 -21.208,10.218 -0.9043,0 -1.0655,-2.3514 -0.6342,-9.25 z m 32.9216,4.342 c 16.6856,-5.5891 35.8812,-15.0751 44.4775,-21.9795 11.9449,-9.594 24.9889,-31.2817 27.7973,-46.2177 2.8289,-15.0441 6.0647,-17.5769 5.2955,-4.1448 -2.2236,38.8262 -39.9528,72.9376 -84.7763,76.6474 l -7.5,0.6207 z"
         id="path3980"
         inkscape:connector-curvature="0" />
      <path
         transform="translate(0,503.14708)"
         d="m 1874.4096,-657.28345 c 0,2.93537 -2.3796,5.31495 -5.315,5.31495 -2.9354,0 -5.3149,-2.37958 -5.3149,-5.31495 0,-2.93536 2.3795,-5.31495 5.3149,-5.31495 2.9354,0 5.315,2.37959 5.315,5.31495 z"
         sodipodi:ry="5.31495"
         sodipodi:rx="5.31495"
         sodipodi:cy="-657.28345"
         sodipodi:cx="1869.0946"
         id="path4016"
         style="fill:none;stroke:#008000;stroke-width:0.35433072;stroke-miterlimit:4;stroke-opacity:1;stroke-dasharray:none"
         sodipodi:type="arc" />
      <path
         transform="translate(0,503.14708)"
         d="m 2033.8582,-657.28345 c 0,2.93537 -2.3796,5.31495 -5.315,5.31495 -2.9354,0 -5.3149,-2.37958 -5.3149,-5.31495 0,-2.93536 2.3795,-5.31495 5.3149,-5.31495 2.9354,0 5.315,2.37959 5.315,5.31495 z"
         sodipodi:ry="5.31495"
         sodipodi:rx="5.31495"
         sodipodi:cy="-657.28345"
         sodipodi:cx="2028.5432"
         id="path4018"
         style="fill:none;stroke:#008000;stroke-width:0.35433072;stroke-miterlimit:4;stroke-opacity:1;stroke-dasharray:none"
         sodipodi:type="arc" />
      <path
         transform="translate(0,503.14708)"
         d="m 2033.8582,-781.29926 c 0,2.93537 -2.3796,5.31495 -5.315,5.31495 -2.9354,0 -5.3149,-2.37958 -5.3149,-5.31495 0,-2.93536 2.3795,-5.31495 5.3149,-5.31495 2.9354,0 5.315,2.37959 5.315,5.31495 z"
         sodipodi:ry="5.31495"
         sodipodi:rx="5.31495"
         sodipodi:cy="-781.29926"
         sodipodi:cx="2028.5432"
         id="path4020"
         style="fill:none;stroke:#008000;stroke-width:0.35433072;stroke-miterlimit:4;stroke-opacity:1;stroke-dasharray:none"
         sodipodi:type="arc" />
      <path
         transform="translate(0,503.14708)"
         d="m 1874.4096,-781.29926 c 0,2.93537 -2.3796,5.31495 -5.315,5.31495 -2.9354,0 -5.3149,-2.37958 -5.3149,-5.31495 0,-2.93536 2.3795,-5.31495 5.3149,-5.31495 2.9354,0 5.315,2.37959 5.315,5.31495 z"
         sodipodi:ry="5.31495"
         sodipodi:rx="5.31495"
         sodipodi:cy="-781.29926"
         sodipodi:cx="1869.0946"
         id="path4022"
         style="fill:none;stroke:#008000;stroke-width:0.35433072;stroke-miterlimit:4;stroke-opacity:1;stroke-dasharray:none"
         sodipodi:type="arc" />
      <path
         transform="translate(0,503.14708)"
         d="m 1913.3859,-781.29919 c 0,9.78458 -7.932,17.71655 -17.7166,17.71655 -9.7846,0 -17.7165,-7.93197 -17.7165,-17.71655 0,-9.78459 7.9319,-17.71656 17.7165,-17.71656 9.7846,0 17.7166,7.93197 17.7166,17.71656 z"
         sodipodi:ry="17.716551"
         sodipodi:rx="17.716551"
         sodipodi:cy="-781.29919"
         sodipodi:cx="1895.6693"
         id="path4028"
         style="fill:none;stroke:#008000;stroke-width:0.35433072;stroke-miterlimit:4;stroke-opacity:1;stroke-dasharray:none"
         sodipodi:type="arc" />
      <path
         transform="translate(0,503.14708)"
         d="m 1966.5355,-781.29919 c 0,9.78458 -7.9319,17.71655 -17.7165,17.71655 -9.7846,0 -17.7166,-7.93197 -17.7166,-17.71655 0,-9.78459 7.932,-17.71656 17.7166,-17.71656 9.7846,0 17.7165,7.93197 17.7165,17.71656 z"
         sodipodi:ry="17.716551"
         sodipodi:rx="17.716551"
         sodipodi:cy="-781.29919"
         sodipodi:cx="1948.819"
         id="path4030"
         style="fill:none;stroke:#008000;stroke-width:0.35433072;stroke-miterlimit:4;stroke-opacity:1;stroke-dasharray:none"
         sodipodi:type="arc" />
      <path
         transform="translate(0,503.14708)"
         d="m 2019.685,-781.29919 c 0,9.78458 -7.9319,17.71655 -17.7165,17.71655 -9.7845,0 -17.7165,-7.93197 -17.7165,-17.71655 0,-9.78459 7.932,-17.71656 17.7165,-17.71656 9.7846,0 17.7165,7.93197 17.7165,17.71656 z"
         sodipodi:ry="17.716551"
         sodipodi:rx="17.716499"
         sodipodi:cy="-781.29919"
         sodipodi:cx="2001.9685"
         id="path4032"
         style="fill:none;stroke:#008000;stroke-width:0.35433072;stroke-miterlimit:4;stroke-opacity:1;stroke-dasharray:none"
         sodipodi:type="arc" />
      <path
         transform="translate(0,488.79662)"
         d="m 1846.0628,-722.83459 c 0,27.3968 -22.2095,49.6063 -49.6063,49.6063 -27.3968,0 -49.6063,-22.2095 -49.6063,-49.6063 0,-27.39681 22.2095,-49.60631 49.6063,-49.60631 27.3968,0 49.6063,22.2095 49.6063,49.60631 z"
         sodipodi:ry="49.6063"
         sodipodi:rx="49.6063"
         sodipodi:cy="-722.83459"
         sodipodi:cx="1796.4565"
         id="path4052"
         style="fill:none;stroke:#008000;stroke-width:0.35433072;stroke-miterlimit:4;stroke-opacity:1;stroke-dasharray:none"
         sodipodi:type="arc" />
      <path
         transform="translate(0,488.79662)"
         d="m 2150.7875,-722.83459 c 0,27.3968 -22.2095,49.6063 -49.6063,49.6063 -27.3969,0 -49.6063,-22.2095 -49.6063,-49.6063 0,-27.39681 22.2094,-49.60631 49.6063,-49.60631 27.3968,0 49.6063,22.2095 49.6063,49.60631 z"
         sodipodi:ry="49.6063"
         sodipodi:rx="49.6063"
         sodipodi:cy="-722.83459"
         sodipodi:cx="2101.1812"
         id="path4058"
         style="fill:none;stroke:#008000;stroke-width:0.35433072;stroke-miterlimit:4;stroke-opacity:1;stroke-dasharray:none"
         sodipodi:type="arc" />
      <rect
         ry="24.730947"
         y="-641.34174"
         x="1615.748"
         height="613.3465"
         width="666.14172"
         id="rect14120"
         style="fill:none;stroke:#0000ff;stroke-width:0.48863649;stroke-miterlimit:4;stroke-opacity:1;stroke-dasharray:none" />
      <rect
         y="-141.3811"
         x="1886.2795"
         height="9.9213018"
         width="34.724396"
         id="rect14128"
         style="fill:none;stroke:#008000;stroke-width:0.33887637;stroke-miterlimit:4;stroke-opacity:1;stroke-dasharray:none" />
      <rect
         y="-141.3811"
         x="1976.6339"
         height="9.9213018"
         width="34.724369"
         id="rect14132"
         style="fill:none;stroke:#008000;stroke-width:0.33887675;stroke-miterlimit:4;stroke-opacity:1;stroke-dasharray:none" />
      <rect
         y="-141.3811"
         x="1815.4135"
         height="9.9213018"
         width="34.7243"
         id="rect14142"
         style="fill:none;stroke:#008000;stroke-width:0.31949583;stroke-miterlimit:4;stroke-opacity:1;stroke-dasharray:none" />
      <rect
         y="-141.3811"
         x="2047.5"
         height="9.9213018"
         width="34.724396"
         id="rect14154"
         style="fill:none;stroke:#008000;stroke-width:0.3388764;stroke-miterlimit:4;stroke-opacity:1;stroke-dasharray:none" />
      <rect
         y="-534.68811"
         x="1885.9252"
         height="9.921216"
         width="35.433102"
         id="rect14156"
         style="fill:none;stroke:#008000;stroke-width:0.34231561;stroke-miterlimit:4;stroke-opacity:1;stroke-dasharray:none" />
      <rect
         y="-534.68811"
         x="1815.0591"
         height="9.921217"
         width="35.433102"
         id="rect14158"
         style="fill:none;stroke:#008000;stroke-width:0.34231558;stroke-miterlimit:4;stroke-opacity:1;stroke-dasharray:none" />
      <rect
         y="-534.68811"
         x="2047.1458"
         height="9.921217"
         width="35.433102"
         id="rect14160"
         style="fill:none;stroke:#008000;stroke-width:0.34231558;stroke-miterlimit:4;stroke-opacity:1;stroke-dasharray:none" />
      <rect
         y="-534.68811"
         x="1976.2795"
         height="9.921216"
         width="35.432999"
         id="rect14162"
         style="fill:none;stroke:#008000;stroke-width:0.34231561;stroke-miterlimit:4;stroke-opacity:1;stroke-dasharray:none" />
      <rect
         y="-315.00311"
         x="1722.4016"
         height="34.724426"
         width="9.9212942"
         id="rect14178"
         style="fill:none;stroke:#008000;stroke-width:0.33887482;stroke-miterlimit:4;stroke-opacity:1;stroke-dasharray:none" />
      <rect
         y="-385.8692"
         x="1722.4016"
         height="34.724411"
         width="9.9212952"
         id="rect14182"
         style="fill:none;stroke:#008000;stroke-width:0.33887476;stroke-miterlimit:4;stroke-opacity:1;stroke-dasharray:none" />
      <rect
         y="-385.8692"
         x="2165.3149"
         height="34.724396"
         width="9.9211721"
         id="rect14184"
         style="fill:none;stroke:#008000;stroke-width:0.33887255;stroke-miterlimit:4;stroke-opacity:1;stroke-dasharray:none" />
      <rect
         y="-315.00311"
         x="2165.3149"
         height="34.724426"
         width="9.9211721"
         id="rect14186"
         style="fill:none;stroke:#008000;stroke-width:0.3388727;stroke-miterlimit:4;stroke-opacity:1;stroke-dasharray:none" />
      <path
         transform="translate(0,460.62743)"
         d="m 2143.7007,-628.93707 c 0,2.93539 -2.3796,5.315 -5.315,5.315 -2.9353,0 -5.3149,-2.37961 -5.3149,-5.315 0,-2.9354 2.3796,-5.315 5.3149,-5.315 2.9354,0 5.315,2.3796 5.315,5.315 z"
         sodipodi:ry="5.3150001"
         sodipodi:rx="5.31495"
         sodipodi:cy="-628.93707"
         sodipodi:cx="2138.3857"
         id="path14460"
         style="fill:none;stroke:#008000;stroke-width:0.35433072;stroke-miterlimit:4;stroke-opacity:1;stroke-dasharray:none"
         sodipodi:type="arc" />
      <path
         transform="translate(0,460.62743)"
         d="m 1764.5669,-628.93707 c 0,2.93539 -2.3796,5.315 -5.3149,5.315 -2.9354,0 -5.315,-2.37961 -5.315,-5.315 0,-2.9354 2.3796,-5.315 5.315,-5.315 2.9353,0 5.3149,2.3796 5.3149,5.315 z"
         sodipodi:ry="5.3150001"
         sodipodi:rx="5.31495"
         sodipodi:cy="-628.93707"
         sodipodi:cx="1759.252"
         id="path14472"
         style="fill:none;stroke:#008000;stroke-width:0.35433072;stroke-miterlimit:4;stroke-opacity:1;stroke-dasharray:none"
         sodipodi:type="arc" />
      <path
         transform="translate(0,460.62743)"
         d="m 2143.7007,-958.46472 c 0,2.93536 -2.3796,5.31495 -5.315,5.31495 -2.9353,0 -5.3149,-2.37959 -5.3149,-5.31495 0,-2.93537 2.3796,-5.31495 5.3149,-5.31495 2.9354,0 5.315,2.37958 5.315,5.31495 z"
         sodipodi:ry="5.31495"
         sodipodi:rx="5.31495"
         sodipodi:cy="-958.46472"
         sodipodi:cx="2138.3857"
         id="path14486"
         style="fill:none;stroke:#008000;stroke-width:0.35433072;stroke-miterlimit:4;stroke-opacity:1;stroke-dasharray:none"
         sodipodi:type="arc" />
      <path
         transform="translate(0,460.62743)"
         d="m 1764.5669,-958.46472 c 0,2.93536 -2.3796,5.31495 -5.3149,5.31495 -2.9354,0 -5.315,-2.37959 -5.315,-5.31495 0,-2.93537 2.3796,-5.31495 5.315,-5.31495 2.9353,0 5.3149,2.37958 5.3149,5.31495 z"
         sodipodi:ry="5.31495"
         sodipodi:rx="5.31495"
         sodipodi:cy="-958.46472"
         sodipodi:cx="1759.252"
         id="path14490"
         style="fill:none;stroke:#008000;stroke-width:0.35433072;stroke-miterlimit:4;stroke-opacity:1;stroke-dasharray:none"
         sodipodi:type="arc" />
      <path
         transform="translate(0,-0.0031023)"
         d="m 1654.7245,-611.22046 c 0,4.89228 -3.966,8.85825 -8.8583,8.85825 -4.8923,0 -8.8582,-3.96597 -8.8582,-8.85825 0,-4.89228 3.9659,-8.85825 8.8582,-8.85825 4.8923,0 8.8583,3.96597 8.8583,8.85825 z"
         sodipodi:ry="8.8582497"
         sodipodi:rx="8.8582497"
         sodipodi:cy="-611.22046"
         sodipodi:cx="1645.8662"
         id="path10269"
         style="fill:#000000;fill-opacity:0;stroke:#008000;stroke-width:3.54330707;stroke-miterlimit:4;stroke-opacity:1;stroke-dasharray:none"
         sodipodi:type="arc" />
      <path
         transform="matrix(0.83333333,0,0,1,376.77165,-0.0031023)"
         d="m 2260.6299,-611.22046 c 0,4.89228 -4.7592,8.85825 -10.6299,8.85825 -5.8707,0 -10.6299,-3.96597 -10.6299,-8.85825 0,-4.89228 4.7592,-8.85825 10.6299,-8.85825 5.8707,0 10.6299,3.96597 10.6299,8.85825 z"
         sodipodi:ry="8.8582497"
         sodipodi:rx="10.6299"
         sodipodi:cy="-611.22046"
         sodipodi:cx="2250"
         id="path10275"
         style="fill:#000000;fill-opacity:0;stroke:#008000;stroke-width:3.54330707;stroke-miterlimit:4;stroke-opacity:1;stroke-dasharray:none"
         sodipodi:type="arc" />
      <path
         transform="translate(0,-0.0031023)"
         d="m 2260.63,-58.464569 c 0,4.892276 -3.966,8.85825 -8.8583,8.85825 -4.8922,0 -8.8582,-3.965974 -8.8582,-8.85825 0,-4.892276 3.966,-8.85825 8.8582,-8.85825 4.8923,0 8.8583,3.965974 8.8583,8.85825 z"
         sodipodi:ry="8.8582497"
         sodipodi:rx="8.8582497"
         sodipodi:cy="-58.464569"
         sodipodi:cx="2251.7717"
         id="path10309"
         style="fill:#000000;fill-opacity:0;stroke:#008000;stroke-width:3.54330707;stroke-miterlimit:4;stroke-opacity:1;stroke-dasharray:none"
         sodipodi:type="arc" />
      <path
         transform="translate(0,-0.0031023)"
         d="m 1654.7245,-58.464569 c 0,4.892276 -3.966,8.85825 -8.8583,8.85825 -4.8923,0 -8.8582,-3.965974 -8.8582,-8.85825 0,-4.892276 3.9659,-8.85825 8.8582,-8.85825 4.8923,0 8.8583,3.965974 8.8583,8.85825 z"
         sodipodi:ry="8.8582497"
         sodipodi:rx="8.8582497"
         sodipodi:cy="-58.464569"
         sodipodi:cx="1645.8662"
         id="path10311"
         style="fill:#000000;fill-opacity:0;stroke:#008000;stroke-width:3.54330707;stroke-miterlimit:4;stroke-opacity:1;stroke-dasharray:none"
         sodipodi:type="arc" />
    </g>
    <path
       style="fill:#000000;fill-opacity:0;stroke:#000000;stroke-width:2.63001871;stroke-miterlimit:4;stroke-opacity:1;stroke-dasharray:none"
       d="m 483.61477,552.27593 0,-19.85749 -393.472746,0 0,-63.95419 393.472746,0 0,-19.8575 99.96022,51.83459 -99.96022,51.83459 z"
       id="rect10351"
       inkscape:connector-curvature="0" />
  </g>
  <g
     inkscape:groupmode="layer"
     id="layer4"
     inkscape:label="instructions"
     transform="translate(0,308.26772)">
    <text
       xml:space="preserve"
       style="font-size:40px;font-style:normal;font-variant:normal;font-weight:normal;font-stretch:normal;text-align:start;line-height:125%;letter-spacing:0px;word-spacing:0px;writing-mode:lr-tb;text-anchor:start;fill:#008000;fill-opacity:1;stroke:none;font-family:Sans;-inkscape-font-specification:Sans"
       x="1305"
       y="-719.90552"
       id="text3397"
       sodipodi:linespacing="125%"><tspan
         sodipodi:role="line"
         x="1305"
         y="-719.90552"
         id="tspan3401">inner cuts (holes)</tspan></text>
    <text
       xml:space="preserve"
       style="font-size:40px;font-style:normal;font-variant:normal;font-weight:normal;font-stretch:normal;text-align:start;line-height:125%;letter-spacing:0px;word-spacing:0px;writing-mode:lr-tb;text-anchor:start;fill:#0000ff;fill-opacity:1;stroke:none;font-family:Sans;-inkscape-font-specification:Sans"
       x="1307"
       y="-678.90552"
       id="text3405"
       sodipodi:linespacing="125%"><tspan
         sodipodi:role="line"
         id="tspan3407"
         x="1307"
         y="-678.90552">outer cuts</tspan></text>
    <text
       xml:space="preserve"
       style="font-size:40px;font-style:normal;font-variant:normal;font-weight:normal;font-stretch:normal;text-align:start;line-height:125%;letter-spacing:0px;word-spacing:0px;writing-mode:lr-tb;text-anchor:start;fill:#000000;fill-opacity:1;stroke:none;font-family:Sans;-inkscape-font-specification:Sans"
       x="1307"
       y="-640.90552"
       id="text3409"
       sodipodi:linespacing="125%"><tspan
         sodipodi:role="line"
         id="tspan3411"
         x="1307"
         y="-640.90552">etches</tspan></text>
  </g>
  <g
     inkscape:groupmode="layer"
     id="layer2"
     inkscape:label="non-cut outlines"
     transform="translate(0,512.36282)"
     style="display:none">
    <rect
       style="fill:none;stroke:#000000;stroke-width:0.68664789;stroke-miterlimit:4;stroke-opacity:1;stroke-dasharray:none"
       id="rect3392"
       width="54.389763"
       height="35.433071"
       x="14.173228"
       y="419.52756" />
    <rect
       style="fill:none;stroke:#000000;stroke-width:0.68664789;stroke-miterlimit:4;stroke-opacity:1;stroke-dasharray:none"
       id="rect3436"
       width="54.389763"
       height="35.433071"
       x="14.173228"
       y="29.763781" />
    <path
       sodipodi:type="arc"
       style="fill:none;stroke:#000000;stroke-width:0.70866144;stroke-miterlimit:4;stroke-opacity:1;stroke-dasharray:none"
       id="path3637"
       sodipodi:cx="300.29529"
       sodipodi:cy="134.91141"
       sodipodi:rx="62.893703"
       sodipodi:ry="64.931099"
       d="m 363.18899,134.91141 c 0,35.86045 -28.15847,64.9311 -62.8937,64.9311 -34.73524,0 -62.89371,-29.07065 -62.89371,-64.9311 0,-35.860458 28.15847,-64.931101 62.89371,-64.931101 34.73523,0 62.8937,29.070643 62.8937,64.931101 z"
       transform="matrix(1.0070421,0,0,0.97544336,-1.6718075,-48.24217)" />
    <rect
       style="fill:none;stroke:#000000;stroke-width:0.70866144;stroke-miterlimit:4;stroke-opacity:1;stroke-dasharray:none"
       id="rect3663"
       width="35.433079"
       height="54.389767"
       x="207.28346"
       y="9.0353975" />
    <rect
       style="fill:none;stroke:#000000;stroke-width:0.70866144;stroke-miterlimit:4;stroke-opacity:1;stroke-dasharray:none"
       id="rect3669"
       width="35.433079"
       height="54.389767"
       x="207.28346"
       y="474.44882"
       transform="translate(0,-53.14963)" />
    <rect
       style="fill:none;stroke:#000000;stroke-width:0.70866144;stroke-miterlimit:4;stroke-opacity:1;stroke-dasharray:none"
       id="rect3701"
       width="141.73228"
       height="177.16534"
       x="246.25984"
       y="206.92912"
       transform="translate(0,-53.14963)" />
    <path
       sodipodi:type="arc"
       style="fill:none;stroke:#000000;stroke-width:0.70866144;stroke-miterlimit:4;stroke-opacity:1;stroke-dasharray:none"
       id="path3705"
       sodipodi:cx="300.73819"
       sodipodi:cy="454.5177"
       sodipodi:rx="63.336617"
       sodipodi:ry="63.336613"
       d="m 364.07481,454.5177 c 0,34.97985 -28.35677,63.33661 -63.33662,63.33661 -34.97985,0 -63.33662,-28.35676 -63.33662,-63.33661 0,-34.97985 28.35677,-63.33661 63.33662,-63.33661 34.97985,0 63.33662,28.35676 63.33662,63.33661 z"
       transform="translate(0,-53.14963)" />
    <rect
       style="fill:none;stroke:#000000;stroke-width:0.70866144;stroke-miterlimit:4;stroke-opacity:1;stroke-dasharray:none"
       id="rect3725"
       width="54.389759"
       height="35.433071"
       x="350.69882"
       y="472.67715"
       transform="translate(0,-53.14963)" />
    <rect
       style="fill:none;stroke:#000000;stroke-width:0.70866144;stroke-miterlimit:4;stroke-opacity:1;stroke-dasharray:none"
       id="rect3729"
       width="54.301182"
       height="35.433071"
       x="350.78741"
       y="82.913376"
       transform="translate(0,-53.14963)" />
    <rect
       style="fill:none;stroke:#000000;stroke-width:0.70866144;stroke-miterlimit:4;stroke-opacity:1;stroke-dasharray:none"
       id="rect3759"
       width="54.354328"
       height="35.433071"
       x="425.19684"
       y="82.913376"
       transform="translate(0,-53.14963)" />
    <rect
       style="fill:none;stroke:#000000;stroke-width:0.70866144;stroke-miterlimit:4;stroke-opacity:1;stroke-dasharray:none"
       id="rect3761"
       width="54.354328"
       height="35.433071"
       x="425.19684"
       y="472.67715"
       transform="translate(0,-53.14963)" />
    <rect
       style="fill:none;stroke:#000000;stroke-width:0.70866144;stroke-miterlimit:4;stroke-opacity:1;stroke-dasharray:none"
       id="rect3781"
       width="54.389759"
       height="35.433071"
       x="577.55908"
       y="472.67715"
       transform="translate(0,-53.14963)" />
    <rect
       style="fill:none;stroke:#000000;stroke-width:0.70866144;stroke-miterlimit:4;stroke-opacity:1;stroke-dasharray:none"
       id="rect3801"
       width="54.389759"
       height="35.433071"
       x="577.55908"
       y="82.913376"
       transform="translate(0,-53.14963)" />
    <rect
       style="fill:none;stroke:#000000;stroke-width:0.73293769;stroke-miterlimit:4;stroke-opacity:1;stroke-dasharray:none"
       id="rect3803"
       width="35.433071"
       height="54.389771"
       x="531.49603"
       y="9.0353985" />
    <rect
       style="fill:none;stroke:#000000;stroke-width:0.70866144;stroke-miterlimit:4;stroke-opacity:1;stroke-dasharray:none"
       id="rect3820"
       width="35.433071"
       height="54.389767"
       x="531.49603"
       y="474.44882"
       transform="translate(0,-53.14963)" />
    <rect
       style="fill:none;stroke:#000000;stroke-width:0.70866144;stroke-miterlimit:4;stroke-opacity:1;stroke-dasharray:none"
       id="rect3832"
       width="35.433071"
       height="54.389771"
       x="683.85828"
       y="62.185028"
       transform="translate(0,-53.14963)" />
    <rect
       style="fill:none;stroke:#000000;stroke-width:0.70866144;stroke-miterlimit:4;stroke-opacity:1;stroke-dasharray:none"
       id="rect3834"
       width="35.433071"
       height="54.389767"
       x="683.85828"
       y="474.44882"
       transform="translate(0,-53.14963)" />
    <rect
       style="fill:none;stroke:#000000;stroke-width:0.70866144;stroke-miterlimit:4;stroke-opacity:1;stroke-dasharray:none"
       id="rect3852"
       width="35.433071"
       height="54.65551"
       x="836.22046"
       y="73.169289"
       transform="translate(0,-53.14963)" />
    <rect
       style="fill:none;stroke:#000000;stroke-width:0.70866144;stroke-miterlimit:4;stroke-opacity:1;stroke-dasharray:none"
       id="rect3870"
       width="35.433071"
       height="54.389759"
       x="836.22046"
       y="415.80707"
       transform="translate(0,-53.14963)" />
    <rect
       style="fill:none;stroke:#000000;stroke-width:0.70866144;stroke-miterlimit:4;stroke-opacity:1;stroke-dasharray:none"
       id="rect3898"
       width="54.389759"
       height="35.433071"
       x="729.92126"
       y="266.54526"
       transform="translate(0,-53.14963)" />
    <rect
       style="fill:none;stroke:#000000;stroke-width:0.70866144;stroke-miterlimit:4;stroke-opacity:1;stroke-dasharray:none"
       id="rect3902"
       width="35.433022"
       height="54.65551"
       x="988.5827"
       y="73.169289"
       transform="translate(0,-53.14963)" />
    <rect
       style="fill:none;stroke:#000000;stroke-width:0.70866144;stroke-miterlimit:4;stroke-opacity:1;stroke-dasharray:none"
       id="rect3904"
       width="35.433022"
       height="54.389759"
       x="988.5827"
       y="415.80707"
       transform="translate(0,-53.14963)" />
    <rect
       style="fill:none;stroke:#000000;stroke-width:0.70866144;stroke-miterlimit:4;stroke-opacity:1;stroke-dasharray:none"
       id="rect3922"
       width="54.389771"
       height="35.433071"
       x="882.28345"
       y="266.54526"
       transform="translate(0,-53.14963)" />
    <rect
       style="fill:none;stroke:#000000;stroke-width:0.70866144;stroke-miterlimit:4;stroke-opacity:1;stroke-dasharray:none"
       id="rect3928"
       width="54.301182"
       height="35.433071"
       x="817.35236"
       y="266.54526"
       transform="translate(0,-53.14963)" />
    <rect
       style="fill:none;stroke:#000000;stroke-width:0.70866144;stroke-miterlimit:4;stroke-opacity:1;stroke-dasharray:none"
       id="rect3940"
       width="54.301128"
       height="35.433071"
       x="969.7146"
       y="266.54526"
       transform="translate(0,-53.14963)" />
  </g>
</svg>
