<?xml version="1.0" encoding="UTF-8" standalone="no"?>
<!-- Created with Inkscape (http://www.inkscape.org/) -->

<svg
   xmlns:dc="http://purl.org/dc/elements/1.1/"
   xmlns:cc="http://creativecommons.org/ns#"
   xmlns:rdf="http://www.w3.org/1999/02/22-rdf-syntax-ns#"
   xmlns:svg="http://www.w3.org/2000/svg"
   xmlns="http://www.w3.org/2000/svg"
   xmlns:sodipodi="http://sodipodi.sourceforge.net/DTD/sodipodi-0.dtd"
   xmlns:inkscape="http://www.inkscape.org/namespaces/inkscape"
   width="1020.4724"
   height="591.73224"
   id="svg3312"
   version="1.1"
   inkscape:version="0.48.1 r9760"
   sodipodi:docname="tabbed-enclosure.svg">
  <defs
     id="defs3314" />
  <sodipodi:namedview
     id="base"
     pagecolor="#ffffff"
     bordercolor="#666666"
     borderopacity="1.0"
     inkscape:pageopacity="0.0"
     inkscape:pageshadow="2"
     inkscape:zoom="1"
     inkscape:cx="2326.9518"
     inkscape:cy="1274.5989"
     inkscape:document-units="mm"
     inkscape:current-layer="layer1"
     showgrid="false"
     units="mm"
     showguides="false"
     inkscape:guide-bbox="true"
     inkscape:window-width="1680"
     inkscape:window-height="1002"
     inkscape:window-x="0"
     inkscape:window-y="22"
     inkscape:window-maximized="1"
     guidetolerance="10">
    <sodipodi:guide
       orientation="0,1"
       position="1159,637.44094"
       id="guide4200" />
    <sodipodi:guide
       orientation="0,1"
       position="1221,648.77953"
       id="guide4202" />
    <sodipodi:guide
       orientation="0,1"
       position="1272,658.70079"
       id="guide4204" />
    <sodipodi:guide
       orientation="0,1"
       position="1228,690.94488"
       id="guide4286" />
    <sodipodi:guide
       orientation="0,1"
       position="1565,1587.4016"
       id="guide3399" />
    <sodipodi:guide
       orientation="0,1"
       position="1229.5,669.68504"
       id="guide3638" />
    <sodipodi:guide
       orientation="0,1"
       position="2079.9992,1576.7717"
       id="guide3726" />
    <sodipodi:guide
       orientation="0,1"
       position="1774.838,1551.9685"
       id="guide3748" />
    <sodipodi:guide
       orientation="0,1"
       position="1797.4665,1541.3386"
       id="guide3750" />
    <sodipodi:guide
       orientation="0,1"
       position="1816.5573,1211.811"
       id="guide3766" />
    <sodipodi:guide
       orientation="0,1"
       position="1296,680.31496"
       id="guide3788" />
    <sodipodi:guide
       orientation="0,1"
       position="1185,627.51969"
       id="guide3817" />
    <sodipodi:guide
       orientation="0,1"
       position="1193,616.88976"
       id="guide3819" />
    <sodipodi:guide
       orientation="1,0"
       position="1948.8189,1488.5008"
       id="guide3877" />
    <sodipodi:guide
       orientation="0,1"
       position="1832.5,1571.4567"
       id="guide3883" />
    <sodipodi:guide
       orientation="0,1"
       position="1862.5,1560.8268"
       id="guide3885" />
    <sodipodi:guide
       orientation="1,0"
       position="1778.2087,1521.9992"
       id="guide3887" />
    <sodipodi:guide
       orientation="1,0"
       position="1788.8386,1497.5008"
       id="guide3889" />
    <sodipodi:guide
       orientation="1,0"
       position="2107.7362,1520.0008"
       id="guide3893" />
    <sodipodi:guide
       orientation="1,0"
       position="2118.3661,1507.9996"
       id="guide3895" />
    <sodipodi:guide
       orientation="1,0"
       position="1814.1732,1457.0008"
       id="guide3899" />
    <sodipodi:guide
       orientation="1,0"
       position="2083.4646,1488.5008"
       id="guide3901" />
    <sodipodi:guide
       orientation="0,1"
       position="1862.5,1376.5748"
       id="guide3903" />
    <sodipodi:guide
       orientation="0,1"
       position="1862.5,1365.9449"
       id="guide3905" />
    <sodipodi:guide
       orientation="0,1"
       position="1862.5,1514.7638"
       id="guide3911" />
    <sodipodi:guide
       orientation="0,1"
       position="1862.5,1422.6378"
       id="guide3913" />
    <sodipodi:guide
       orientation="0,1"
       position="1896,1335.8268"
       id="guide3921" />
    <sodipodi:guide
       orientation="1,0"
       position="1931.1024,1488.5008"
       id="guide3923" />
    <sodipodi:guide
       orientation="1,0"
       position="1966.5355,1342"
       id="guide3925" />
    <sodipodi:guide
       orientation="1,0"
       position="1913.3859,1385.5"
       id="guide3931" />
    <sodipodi:guide
       orientation="1,0"
       position="1877.9528,1385.5"
       id="guide3933" />
    <sodipodi:guide
       orientation="1,0"
       position="1984.252,1342"
       id="guide3937" />
    <sodipodi:guide
       orientation="1,0"
       position="2019.685,1319.9988"
       id="guide3939" />
    <sodipodi:guide
       orientation="0,1"
       position="1896,1325.1969"
       id="guide3945" />
    <sodipodi:guide
       orientation="1,0"
       position="1874.4095,1385.5"
       id="guide3947" />
    <sodipodi:guide
       orientation="1,0"
       position="1863.7796,1385.5"
       id="guide3949" />
    <sodipodi:guide
       orientation="1,0"
       position="2023.2283,1319.9988"
       id="guide3953" />
    <sodipodi:guide
       orientation="1,0"
       position="2033.8582,1315"
       id="guide3955" />
    <sodipodi:guide
       orientation="0,1"
       position="1896,1233.0708"
       id="guide3982" />
    <sodipodi:guide
       orientation="0,1"
       position="1830.5,1197.6378"
       id="guide4010" />
    <sodipodi:guide
       orientation="0,1"
       position="1833,1201.1811"
       id="guide4012" />
    <sodipodi:guide
       orientation="0,1"
       position="1837.4988,1348.2283"
       id="guide4024" />
    <sodipodi:guide
       orientation="0,1"
       position="1853,1312.7952"
       id="guide4026" />
    <sodipodi:guide
       orientation="1,0"
       position="1746.8503,1281.5"
       id="guide4034" />
    <sodipodi:guide
       orientation="1,0"
       position="1846.0629,1276"
       id="guide4042" />
    <sodipodi:guide
       orientation="1,0"
       position="2051.5748,1271"
       id="guide4054" />
    <sodipodi:guide
       orientation="1,0"
       position="2150.7874,1262.5"
       id="guide4056" />
    <sodipodi:guide
       orientation="0,1"
       position="2398.5061,1530.7087"
       id="guide4124" />
    <sodipodi:guide
       orientation="0,1"
       position="2383.6569,1520.0787"
       id="guide4127" />
    <sodipodi:guide
       orientation="0,1"
       position="1044.5,605.90551"
       id="guide4151" />
    <sodipodi:guide
       orientation="0,1"
       position="1054.5,595.27559"
       id="guide4153" />
    <sodipodi:guide
       orientation="0,1"
       position="1105.2079,626.81102"
       id="guide4584" />
    <sodipodi:guide
       orientation="1,0"
       position="1732.6772,1305.3189"
       id="guide14095" />
    <sodipodi:guide
       orientation="1,0"
       position="1722.0472,1293.6508"
       id="guide14097" />
    <sodipodi:guide
       orientation="1,0"
       position="2164.9606,1262.8913"
       id="guide14099" />
    <sodipodi:guide
       orientation="1,0"
       position="1704.3307,1275.9732"
       id="guide14101" />
    <sodipodi:guide
       orientation="1,0"
       position="2175.5906,1273.8543"
       id="guide14103" />
    <sodipodi:guide
       orientation="1,0"
       position="2193.3071,1287.287"
       id="guide14105" />
    <sodipodi:guide
       orientation="0,1"
       position="1894.3391,1169.2913"
       id="guide14107" />
    <sodipodi:guide
       orientation="0,1"
       position="1890.8035,1194.0945"
       id="guide14109" />
    <sodipodi:guide
       orientation="0,1"
       position="1894.6926,1183.4646"
       id="guide14111" />
    <sodipodi:guide
       orientation="0,1"
       position="1895.7533,1165.748"
       id="guide14113" />
    <sodipodi:guide
       orientation="0,1"
       position="1823.9811,1605.1181"
       id="guide14115" />
    <sodipodi:guide
       orientation="1,0"
       position="1921.3583,1153.2912"
       id="guide14122" />
    <sodipodi:guide
       orientation="1,0"
       position="1976.2796,1153.2912"
       id="guide14124" />
    <sodipodi:guide
       orientation="1,0"
       position="1885.9252,1136.5016"
       id="guide14126" />
    <sodipodi:guide
       orientation="1,0"
       position="2011.7126,1159.0016"
       id="guide14130" />
    <sodipodi:guide
       orientation="1,0"
       position="1852.2639,1148.5"
       id="guide14134" />
    <sodipodi:guide
       orientation="1,0"
       position="1816.8308,1127"
       id="guide14140" />
    <sodipodi:guide
       orientation="1,0"
       position="2045.3739,1175"
       id="guide14148" />
    <sodipodi:guide
       orientation="1,0"
       position="2080.807,1149.5"
       id="guide14150" />
    <sodipodi:guide
       orientation="0,1"
       position="1657,1388.0905"
       id="guide14168" />
    <sodipodi:guide
       orientation="0,1"
       position="1672.5,1354.4292"
       id="guide14170" />
    <sodipodi:guide
       orientation="0,1"
       position="1746.8503,1318.9961"
       id="guide14176" />
    <sodipodi:guide
       orientation="0,1"
       position="1755,1423.5236"
       id="guide14180" />
    <sodipodi:guide
       orientation="0,1"
       position="2272,1133.8583"
       id="guide14188" />
    <sodipodi:guide
       orientation="0,1"
       position="2232.5,956.69291"
       id="guide14190" />
    <sodipodi:guide
       orientation="0,1"
       position="2244,1144.4882"
       id="guide14192" />
    <sodipodi:guide
       orientation="0,1"
       position="2233.5,1098.4252"
       id="guide14194" />
    <sodipodi:guide
       orientation="0,1"
       position="2244.5,1009.8426"
       id="guide14196" />
    <sodipodi:guide
       orientation="0,1"
       position="1960.5,1080.7087"
       id="guide14219" />
    <sodipodi:guide
       orientation="1,0"
       position="2232.2835,1284.4984"
       id="guide14224" />
    <sodipodi:guide
       orientation="1,0"
       position="2409.4488,1285.5012"
       id="guide14226" />
    <sodipodi:guide
       orientation="1,0"
       position="2221.6535,1413"
       id="guide14228" />
    <sodipodi:guide
       orientation="1,0"
       position="2285.4331,1274.9988"
       id="guide14230" />
    <sodipodi:guide
       orientation="1,0"
       position="2356.2992,1282"
       id="guide14232" />
    <sodipodi:guide
       orientation="0,1"
       position="2245,1381.8898"
       id="guide14251" />
    <sodipodi:guide
       orientation="0,1"
       position="2238.5,1360.6299"
       id="guide14253" />
    <sodipodi:guide
       orientation="0,1"
       position="2095.5,1084.252"
       id="guide14264" />
    <sodipodi:guide
       orientation="0,1"
       position="2101,1109.0551"
       id="guide14266" />
    <sodipodi:guide
       orientation="0,1"
       position="2212.8907,974.40945"
       id="guide14292" />
    <sodipodi:guide
       orientation="0,1"
       position="2207.2338,985.03937"
       id="guide14294" />
    <sodipodi:guide
       orientation="1,0"
       position="1943.5039,1002.6774"
       id="guide14296" />
    <sodipodi:guide
       orientation="1,0"
       position="1954.1338,1041.9218"
       id="guide14298" />
    <sodipodi:guide
       orientation="1,0"
       position="1931.9882,1030.9617"
       id="guide14302" />
    <sodipodi:guide
       orientation="1,0"
       position="1965.6495,1037.6792"
       id="guide14304" />
    <sodipodi:guide
       orientation="1,0"
       position="2001.0826,1024.5977"
       id="guide14306" />
    <sodipodi:guide
       orientation="1,0"
       position="1896.5551,1018.2338"
       id="guide14310" />
    <sodipodi:guide
       orientation="1,0"
       position="2391.7323,1459.4669"
       id="guide14314" />
    <sodipodi:guide
       orientation="1,0"
       position="2381.1024,1491.9945"
       id="guide14316" />
    <sodipodi:guide
       orientation="0,1"
       position="2328.5026,921.25984"
       id="guide14324" />
    <sodipodi:guide
       orientation="1,0"
       position="2444.8819,1443.9118"
       id="guide14326" />
    <sodipodi:guide
       orientation="1,0"
       position="2877.1654,1488.4598"
       id="guide14328" />
    <sodipodi:guide
       orientation="1,0"
       position="2434.252,1623.5172"
       id="guide14334" />
    <sodipodi:guide
       orientation="1,0"
       position="2887.7953,1453.8115"
       id="guide14340" />
    <sodipodi:guide
       orientation="1,0"
       position="2466.1417,1617.1532"
       id="guide14347" />
    <sodipodi:guide
       orientation="1,0"
       position="2476.7717,1622.8101"
       id="guide14349" />
    <sodipodi:guide
       orientation="1,0"
       position="2490.9449,1632.0012"
       id="guide14351" />
    <sodipodi:guide
       orientation="1,0"
       position="2855.9056,1605.1181"
       id="guide14361" />
    <sodipodi:guide
       orientation="1,0"
       position="2845.2756,1630.5882"
       id="guide14363" />
    <sodipodi:guide
       orientation="1,0"
       position="2827.5591,1638.3664"
       id="guide14365" />
    <sodipodi:guide
       orientation="1,0"
       position="2655.7087,1296.8327"
       id="guide14383" />
    <sodipodi:guide
       orientation="1,0"
       position="2644.193,1266.4282"
       id="guide14385" />
    <sodipodi:guide
       orientation="1,0"
       position="2608.7599,1266.4282"
       id="guide14387" />
    <sodipodi:guide
       orientation="1,0"
       position="2666.3386,1272.7922"
       id="guide14391" />
    <sodipodi:guide
       orientation="1,0"
       position="2677.8543,1272.7922"
       id="guide14393" />
    <sodipodi:guide
       orientation="1,0"
       position="2713.2874,1272.7922"
       id="guide14395" />
    <sodipodi:guide
       orientation="0,1"
       position="2906.2089,1555.5119"
       id="guide14406" />
    <sodipodi:guide
       orientation="0,1"
       position="2932.3718,1544.882"
       id="guide14408" />
    <sodipodi:guide
       orientation="0,1"
       position="2939.4429,1530.7088"
       id="guide14410" />
    <sodipodi:guide
       orientation="1,0"
       position="2650.3937,1587.4016"
       id="guide14412" />
    <sodipodi:guide
       orientation="1,0"
       position="2671.6536,1594.5258"
       id="guide14414" />
    <sodipodi:guide
       orientation="0,1"
       position="2689.1271,1215.3543"
       id="guide14424" />
    <sodipodi:guide
       orientation="0,1"
       position="2692.6626,1225.9843"
       id="guide14426" />
    <sodipodi:guide
       orientation="0,1"
       position="2701.855,1240.1575"
       id="guide14428" />
    <sodipodi:guide
       orientation="1,0"
       position="2143.7008,1153.5"
       id="guide14456" />
    <sodipodi:guide
       orientation="1,0"
       position="2133.0709,1201.1811"
       id="guide14458" />
    <sodipodi:guide
       orientation="0,1"
       position="2118.3661,1208.2677"
       id="guide14462" />
    <sodipodi:guide
       orientation="1,0"
       position="1753.937,1215.3543"
       id="guide14468" />
    <sodipodi:guide
       orientation="1,0"
       position="1764.5669,1215.3543"
       id="guide14470" />
  </sodipodi:namedview>
  <metadata
     id="metadata3317">
    <rdf:RDF>
      <cc:Work
         rdf:about="">
        <dc:format>image/svg+xml</dc:format>
        <dc:type
           rdf:resource="http://purl.org/dc/dcmitype/StillImage" />
        <dc:title />
      </cc:Work>
    </rdf:RDF>
  </metadata>
  <g
     inkscape:label="cuts"
     inkscape:groupmode="layer"
     id="layer1"
     transform="translate(0,-460.62743)"
     style="display:inline">
    <path
       sodipodi:type="arc"
       style="fill:none;stroke:#008000;stroke-width:0.35433072;stroke-miterlimit:4;stroke-opacity:1;stroke-dasharray:none"
       id="path3891"
       sodipodi:cx="1783.5237"
       sodipodi:cy="-1016.9291"
       sodipodi:rx="5.31495"
       sodipodi:ry="5.31495"
       d="m 1788.8386,-1016.9291 a 5.31495,5.31495 0 1 1 -10.6299,0 5.31495,5.31495 0 1 1 10.6299,0 z"
       transform="translate(0,503.14708)" />
    <path
       sodipodi:type="arc"
       style="fill:none;stroke:#008000;stroke-width:0.35433072;stroke-miterlimit:4;stroke-opacity:1;stroke-dasharray:none"
       id="path3897"
       sodipodi:cx="2113.0513"
       sodipodi:cy="-1016.9291"
       sodipodi:rx="5.31495"
       sodipodi:ry="5.31495"
       d="m 2118.3662,-1016.9291 a 5.31495,5.31495 0 1 1 -10.6299,0 5.31495,5.31495 0 1 1 10.6299,0 z"
       transform="translate(0,503.14708)" />
    <path
       sodipodi:type="arc"
       style="fill:none;stroke:#008000;stroke-width:0.35433072;stroke-miterlimit:4;stroke-opacity:1;stroke-dasharray:none"
       id="path3907"
       sodipodi:cx="1783.5237"
       sodipodi:cy="-822.04724"
       sodipodi:rx="5.31495"
       sodipodi:ry="5.31495"
       d="m 1788.8386,-822.04724 a 5.31495,5.31495 0 1 1 -10.6299,0 5.31495,5.31495 0 1 1 10.6299,0 z"
       transform="translate(0,503.14708)" />
    <path
       sodipodi:type="arc"
       style="fill:none;stroke:#008000;stroke-width:0.35433072;stroke-miterlimit:4;stroke-opacity:1;stroke-dasharray:none"
       id="path3909"
       sodipodi:cx="2113.0513"
       sodipodi:cy="-822.04724"
       sodipodi:rx="5.31495"
       sodipodi:ry="5.31495"
       d="m 2118.3662,-822.04724 a 5.31495,5.31495 0 1 1 -10.6299,0 5.31495,5.31495 0 1 1 10.6299,0 z"
       transform="translate(0,503.14708)" />
    <path
       sodipodi:type="inkscape:offset"
       inkscape:radius="0"
       inkscape:original="M 1819.6875 -965.5625 C 1816.6405 -965.5625 1814.1875 -963.1095 1814.1875 -960.0625 L 1814.1875 -878.9375 C 1814.1875 -875.8905 1816.6405 -873.4375 1819.6875 -873.4375 L 2077.9688 -873.4375 C 2081.0158 -873.4375 2083.4688 -875.8905 2083.4688 -878.9375 L 2083.4688 -960.0625 C 2083.4688 -963.1095 2081.0158 -965.5625 2077.9688 -965.5625 L 1819.6875 -965.5625 z "
       style="fill:none;stroke:#000000;stroke-width:0.35433072;stroke-miterlimit:4;stroke-opacity:1;stroke-dasharray:none"
       id="path3919"
       d="m 1819.6875,-965.5625 c -3.047,0 -5.5,2.453 -5.5,5.5 l 0,81.125 c 0,3.047 2.453,5.5 5.5,5.5 l 258.2813,0 c 3.047,0 5.5,-2.453 5.5,-5.5 l 0,-81.125 c 0,-3.047 -2.453,-5.5 -5.5,-5.5 l -258.2813,0 z"
       transform="translate(0,503.14708)" />
    <path
       inkscape:connector-curvature="0"
       id="path3980"
       d="m 1877.9528,-157.85293 c 0.6052,-9.6789 3,-21.0748 8.8529,-30.5724 2.9248,-5.8068 18.5232,-22.395 29.6229,-30.1815 16.5463,-11.6073 28.9661,-17.5555 55.7398,-26.6953 24.8703,-8.4901 52.0366,-14.29921 46.2134,-9.882 -0.9826,0.7453 -7.0576,3.0036 -13.5,5.0184 -49.3338,15.4285 -70.2012,24.604 -90.1616,39.6447 -10.9587,8.2576 -19.3363,17.7779 -24.1274,27.4181 -4.2725,8.5968 -6.6485,18.4789 -5.5221,22.9669 0.6368,2.5374 1.0038,2.7289 4.2275,2.2057 8.0146,-1.3005 34.3278,-21.7696 55.3523,-43.0586 9.5152,-9.6349 13.0179,-12.2472 13.0179,-9.7086 0,4.426 -40.6307,40.8466 -57.8734,51.8766 -5.9774,3.8237 -19.2492,10.218 -21.208,10.218 -0.9043,0 -1.0655,-2.3514 -0.6342,-9.25 z m 32.9216,4.342 c 16.6856,-5.5891 35.8812,-15.0751 44.4775,-21.9795 11.9449,-9.594 24.9889,-31.2817 27.7973,-46.2177 2.8289,-15.0441 6.0647,-17.5769 5.2955,-4.1448 -2.2236,38.8262 -39.9528,72.9376 -84.7763,76.6474 l -7.5,0.6207 z"
       style="fill:none;stroke:#ff0000;stroke-width:0.35433072;stroke-miterlimit:4;stroke-opacity:1;stroke-dasharray:none"
       sodipodi:nodetypes="scsscsssccssssssscsscs" />
    <path
       sodipodi:type="arc"
       style="fill:none;stroke:#008000;stroke-width:0.35433072;stroke-miterlimit:4;stroke-opacity:1;stroke-dasharray:none"
       id="path4016"
       sodipodi:cx="1869.0946"
       sodipodi:cy="-657.28345"
       sodipodi:rx="5.31495"
       sodipodi:ry="5.31495"
       d="m 1874.4096,-657.28345 a 5.31495,5.31495 0 1 1 -10.6299,0 5.31495,5.31495 0 1 1 10.6299,0 z"
       transform="translate(0,503.14708)" />
    <path
       sodipodi:type="arc"
       style="fill:none;stroke:#008000;stroke-width:0.35433072;stroke-miterlimit:4;stroke-opacity:1;stroke-dasharray:none"
       id="path4018"
       sodipodi:cx="2028.5432"
       sodipodi:cy="-657.28345"
       sodipodi:rx="5.31495"
       sodipodi:ry="5.31495"
       d="m 2033.8582,-657.28345 a 5.31495,5.31495 0 1 1 -10.6299,0 5.31495,5.31495 0 1 1 10.6299,0 z"
       transform="translate(0,503.14708)" />
    <path
       sodipodi:type="arc"
       style="fill:none;stroke:#008000;stroke-width:0.35433072;stroke-miterlimit:4;stroke-opacity:1;stroke-dasharray:none"
       id="path4020"
       sodipodi:cx="2028.5432"
       sodipodi:cy="-781.29926"
       sodipodi:rx="5.31495"
       sodipodi:ry="5.31495"
       d="m 2033.8582,-781.29926 a 5.31495,5.31495 0 1 1 -10.6299,0 5.31495,5.31495 0 1 1 10.6299,0 z"
       transform="translate(0,503.14708)" />
    <path
       sodipodi:type="arc"
       style="fill:none;stroke:#008000;stroke-width:0.35433072;stroke-miterlimit:4;stroke-opacity:1;stroke-dasharray:none"
       id="path4022"
       sodipodi:cx="1869.0946"
       sodipodi:cy="-781.29926"
       sodipodi:rx="5.31495"
       sodipodi:ry="5.31495"
       d="m 1874.4096,-781.29926 a 5.31495,5.31495 0 1 1 -10.6299,0 5.31495,5.31495 0 1 1 10.6299,0 z"
       transform="translate(0,503.14708)" />
    <path
       sodipodi:type="arc"
       style="fill:none;stroke:#008000;stroke-width:0.35433072;stroke-miterlimit:4;stroke-opacity:1;stroke-dasharray:none"
       id="path4028"
       sodipodi:cx="1895.6693"
       sodipodi:cy="-781.29919"
       sodipodi:rx="17.716551"
       sodipodi:ry="17.716551"
       d="m 1913.3859,-781.29919 a 17.716551,17.716551 0 1 1 -35.4331,0 17.716551,17.716551 0 1 1 35.4331,0 z"
       transform="translate(0,503.14708)" />
    <path
       sodipodi:type="arc"
       style="fill:none;stroke:#008000;stroke-width:0.35433072;stroke-miterlimit:4;stroke-opacity:1;stroke-dasharray:none"
       id="path4030"
       sodipodi:cx="1948.819"
       sodipodi:cy="-781.29919"
       sodipodi:rx="17.716551"
       sodipodi:ry="17.716551"
       d="m 1966.5355,-781.29919 a 17.716551,17.716551 0 1 1 -35.4331,0 17.716551,17.716551 0 1 1 35.4331,0 z"
       transform="translate(0,503.14708)" />
    <path
       sodipodi:type="arc"
       style="fill:none;stroke:#008000;stroke-width:0.35433072;stroke-miterlimit:4;stroke-opacity:1;stroke-dasharray:none"
       id="path4032"
       sodipodi:cx="2001.9685"
       sodipodi:cy="-781.29919"
       sodipodi:rx="17.716499"
       sodipodi:ry="17.716551"
       d="m 2019.685,-781.29919 a 17.716499,17.716551 0 1 1 -35.433,0 17.716499,17.716551 0 1 1 35.433,0 z"
       transform="translate(0,503.14708)" />
    <path
       sodipodi:type="arc"
       style="fill:none;stroke:#008000;stroke-width:0.35433072;stroke-miterlimit:4;stroke-opacity:1;stroke-dasharray:none"
       id="path4052"
       sodipodi:cx="1796.4565"
       sodipodi:cy="-722.83459"
       sodipodi:rx="49.6063"
       sodipodi:ry="49.6063"
       d="m 1846.0628,-722.83459 a 49.6063,49.6063 0 1 1 -99.2126,0 49.6063,49.6063 0 1 1 99.2126,0 z"
       transform="translate(0,488.79662)" />
    <path
       sodipodi:type="arc"
       style="fill:none;stroke:#008000;stroke-width:0.35433072;stroke-miterlimit:4;stroke-opacity:1;stroke-dasharray:none"
       id="path4058"
       sodipodi:cx="2101.1812"
       sodipodi:cy="-722.83459"
       sodipodi:rx="49.6063"
       sodipodi:ry="49.6063"
       d="m 2150.7875,-722.83459 a 49.6063,49.6063 0 1 1 -99.2126,0 49.6063,49.6063 0 1 1 99.2126,0 z"
       transform="translate(0,488.79662)" />
    <rect
       style="fill:none;stroke:#000000;stroke-width:0.35433071999999999;stroke-miterlimit:4;stroke-opacity:1;stroke-dasharray:none"
       id="rect14120"
       width="488.97641"
       height="439.37009"
       x="1704.3307"
       y="-1013.3859"
       transform="translate(0,460.62743)" />
    <rect
       style="fill:none;stroke:#000000;stroke-width:0.35433072;stroke-miterlimit:4;stroke-opacity:1;stroke-dasharray:none"
       id="rect14128"
       width="35.433102"
       height="10.6299"
       x="1885.9252"
       y="-602.36224"
       transform="translate(0,460.62743)" />
    <rect
       style="fill:none;stroke:#000000;stroke-width:0.35433072;stroke-miterlimit:4;stroke-opacity:1;stroke-dasharray:none"
       id="rect14132"
       width="35.432999"
       height="10.6299"
       x="1976.2795"
       y="-602.36224"
       transform="translate(0,460.62743)" />
    <rect
       style="fill:none;stroke:#000000;stroke-width:0.3340669;stroke-miterlimit:4;stroke-opacity:1;stroke-dasharray:none"
       id="rect14142"
       width="35.433125"
       height="10.6299"
       x="1816.8308"
       y="-141.73482" />
    <rect
       style="fill:none;stroke:#000000;stroke-width:0.35433072;stroke-miterlimit:4;stroke-opacity:1;stroke-dasharray:none"
       id="rect14154"
       width="35.433102"
       height="10.6299"
       x="2045.3739"
       y="-602.36224"
       transform="translate(0,460.62743)" />
    <rect
       style="fill:none;stroke:#000000;stroke-width:0.35433072;stroke-miterlimit:4;stroke-opacity:1;stroke-dasharray:none"
       id="rect14156"
       width="35.433102"
       height="10.6299"
       x="1885.9252"
       y="-995.66937"
       transform="translate(0,460.62743)" />
    <rect
       style="fill:none;stroke:#000000;stroke-width:0.35433072;stroke-miterlimit:4;stroke-opacity:1;stroke-dasharray:none"
       id="rect14158"
       width="35.433102"
       height="10.6299"
       x="1816.8308"
       y="-995.66937"
       transform="translate(0,460.62743)" />
    <rect
       style="fill:none;stroke:#000000;stroke-width:0.35433072;stroke-miterlimit:4;stroke-opacity:1;stroke-dasharray:none"
       id="rect14160"
       width="35.433102"
       height="10.6299"
       x="2045.3739"
       y="-995.66937"
       transform="translate(0,460.62743)" />
    <rect
       style="fill:none;stroke:#000000;stroke-width:0.35433072;stroke-miterlimit:4;stroke-opacity:1;stroke-dasharray:none"
       id="rect14162"
       width="35.432999"
       height="10.6299"
       x="1976.2795"
       y="-995.66937"
       transform="translate(0,460.62743)" />
    <rect
       style="fill:none;stroke:#000000;stroke-width:0.35433072;stroke-miterlimit:4;stroke-opacity:1;stroke-dasharray:none"
       id="rect14178"
       width="10.63"
       height="35.433102"
       x="1722.0472"
       y="-762.69696"
       transform="translate(0,460.62743)" />
    <rect
       style="fill:none;stroke:#000000;stroke-width:0.35433072;stroke-miterlimit:4;stroke-opacity:1;stroke-dasharray:none"
       id="rect14182"
       width="10.63"
       height="35.433102"
       x="1722.0472"
       y="-831.79138"
       transform="translate(0,460.62743)" />
    <rect
       style="fill:none;stroke:#000000;stroke-width:0.35433072;stroke-miterlimit:4;stroke-opacity:1;stroke-dasharray:none"
       id="rect14184"
       width="10.63"
       height="35.433102"
       x="2164.9607"
       y="-831.79138"
       transform="translate(0,460.62743)" />
    <rect
       style="fill:none;stroke:#000000;stroke-width:0.35433072;stroke-miterlimit:4;stroke-opacity:1;stroke-dasharray:none"
       id="rect14186"
       width="10.63"
       height="35.433102"
       x="2164.9607"
       y="-762.69696"
       transform="translate(0,460.62743)" />
    <path
       style="fill:none;stroke:#000000;stroke-width:0.35433072;stroke-miterlimit:4;stroke-opacity:1;stroke-dasharray:none"
       d="M 1816.8438 -552.75 L 1816.8438 -542.125 L 1722.0625 -542.125 L 1722.0625 -488.96875 L 1732.6875 -488.96875 L 1732.6875 -418.125 L 1722.0625 -418.125 L 1722.0625 -364.96875 L 2175.5938 -364.96875 L 2175.5938 -400.40625 L 2175.5938 -418.125 L 2164.9688 -418.125 L 2164.9688 -488.96875 L 2175.5938 -488.96875 L 2175.5938 -542.125 L 2080.8125 -542.125 L 2080.8125 -552.75 L 2045.375 -552.75 L 2045.375 -542.125 L 2033.8438 -542.125 L 2023.2188 -542.125 L 2011.7188 -542.125 L 2011.7188 -552.75 L 1976.2812 -552.75 L 1976.2812 -542.125 L 1976.2812 -488.96875 L 1921.375 -488.96875 L 1921.3438 -542.125 L 1921.3438 -552.75 L 1885.9375 -552.75 L 1885.9375 -542.125 L 1874.4062 -542.125 L 1863.7812 -542.125 L 1852.25 -542.125 L 1852.25 -552.75 L 1816.8438 -552.75 z "
       transform="translate(0,460.62743)"
       id="rect14198" />
    <path
       style="fill:none;stroke:#000000;stroke-width:0.35433072;stroke-miterlimit:4;stroke-opacity:1;stroke-dasharray:none"
       d="m 2285.4375,-995.65625 0,10.625 -53.1563,0 0,153.25 -10.625,0 0,35.4375 10.625,0 c 0,-0.0145 0,33.65615 0,33.65615 l -10.625,0 0,35.4375 10.625,0 0,124.875 53.1563,0 0,10.65625 70.875,0 0,-10.65625 53.125,0 0,-382.65625 -53.125,0 0,-10.625 z"
       transform="translate(0,460.62743)"
       id="rect14234"
       inkscape:connector-curvature="0"
       sodipodi:nodetypes="ccccccccccccccccccccc" />
    <path
       sodipodi:type="arc"
       style="fill:none;stroke:#000000;stroke-width:0.35433072;stroke-miterlimit:4;stroke-opacity:1;stroke-dasharray:none"
       id="path14300"
       sodipodi:cx="1948.8188"
       sodipodi:cy="-387.99216"
       sodipodi:rx="5.31495"
       sodipodi:ry="5.31496"
       d="m 1954.1338,-387.99216 a 5.31495,5.31496 0 1 1 -10.6299,0 5.31495,5.31496 0 1 1 10.6299,0 z"
       transform="translate(0,460.62743)" />
    <rect
       style="fill:none;stroke:#000000;stroke-width:0.35433072;stroke-miterlimit:4;stroke-opacity:1;stroke-dasharray:none"
       id="rect14308"
       width="35.433102"
       height="10.62992"
       x="1965.6495"
       y="-393.30713"
       transform="translate(0,460.62743)" />
    <rect
       style="fill:none;stroke:#000000;stroke-width:0.35433072;stroke-miterlimit:4;stroke-opacity:1;stroke-dasharray:none"
       id="rect14312"
       width="35.433102"
       height="10.62992"
       x="1896.5551"
       y="-393.30713"
       transform="translate(0,460.62743)" />
    <path
       sodipodi:type="arc"
       style="fill:none;stroke:#000000;stroke-width:0.35433072;stroke-miterlimit:4;stroke-opacity:1;stroke-dasharray:none"
       id="path14318"
       sodipodi:cx="2386.4172"
       sodipodi:cy="-779.52759"
       sodipodi:rx="5.31495"
       sodipodi:ry="5.31495"
       d="m 2391.7322,-779.52759 a 5.31495,5.31495 0 1 1 -10.6299,0 5.31495,5.31495 0 1 1 10.6299,0 z"
       transform="translate(0,460.62743)" />
    <rect
       style="fill:none;stroke:#000000;stroke-width:0.35433072;stroke-miterlimit:4;stroke-opacity:1;stroke-dasharray:none"
       id="rect14320"
       width="10.6299"
       height="35.433102"
       x="2381.1023"
       y="-831.79138"
       transform="translate(0,460.62743)" />
    <rect
       style="fill:none;stroke:#000000;stroke-width:0.35433072;stroke-miterlimit:4;stroke-opacity:1;stroke-dasharray:none"
       id="rect14322"
       width="10.6299"
       height="35.433102"
       x="2381.1023"
       y="-762.69696"
       transform="translate(0,460.62743)" />
    <path
       style="fill:none;stroke:#000000;stroke-width:0.35433072;stroke-miterlimit:4;stroke-opacity:1;stroke-dasharray:none"
       d="M 2608.75 -995.65625 L 2608.75 -985.03125 L 2444.875 -985.03125 L 2444.875 -831.78125 L 2434.25 -831.78125 L 2434.25 -796.34375 L 2444.875 -796.34375 L 2444.875 -784.84375 L 2466.1562 -784.84375 L 2466.1562 -790.15625 L 2476.7812 -790.15625 L 2476.7812 -784.84375 L 2490.9375 -784.84375 L 2490.9375 -774.21875 L 2476.7812 -774.21875 L 2476.7812 -768.90625 L 2466.1562 -768.90625 L 2466.1562 -774.21875 L 2444.875 -774.21875 L 2444.875 -762.6875 L 2434.25 -762.6875 L 2434.25 -727.25 L 2444.875 -727.25 L 2444.875 -602.375 L 2608.75 -602.375 L 2608.75 -591.71875 L 2644.1875 -591.71875 L 2644.1875 -602.375 L 2655.7188 -602.375 L 2655.7188 -623.625 L 2650.4062 -623.625 L 2650.4062 -634.25 L 2655.7188 -634.25 L 2655.7188 -648.4375 L 2666.3438 -648.4375 L 2666.3438 -634.25 L 2671.6562 -634.25 L 2671.6562 -623.625 L 2666.3438 -623.625 L 2666.3438 -602.375 L 2677.8438 -602.375 L 2677.8438 -591.71875 L 2713.2812 -591.71875 L 2713.2812 -602.375 L 2877.1562 -602.375 L 2877.1562 -727.25 L 2887.7812 -727.25 L 2887.7812 -762.6875 L 2877.1562 -762.6875 L 2877.1562 -774.21875 L 2855.9062 -774.21875 L 2855.9062 -768.90625 L 2845.2812 -768.90625 L 2845.2812 -774.21875 L 2827.5625 -774.21875 L 2827.5625 -784.84375 L 2845.2812 -784.84375 L 2845.2812 -790.15625 L 2855.9062 -790.15625 L 2855.9062 -784.84375 L 2877.1562 -784.84375 L 2877.1562 -796.34375 L 2887.7812 -796.34375 L 2887.7812 -831.78125 L 2877.1562 -831.78125 L 2877.1562 -985.03125 L 2713.2812 -985.03125 L 2713.2812 -995.65625 L 2677.8438 -995.65625 L 2677.8438 -985.03125 L 2666.3438 -985.03125 L 2666.3438 -963.78125 L 2671.6562 -963.78125 L 2671.6562 -953.15625 L 2666.3438 -953.15625 L 2666.3438 -938.96875 L 2655.7188 -938.96875 L 2655.7188 -953.15625 L 2650.4062 -953.15625 L 2650.4062 -963.78125 L 2655.7188 -963.78125 L 2655.7188 -985.03125 L 2644.1875 -985.03125 L 2644.1875 -995.65625 L 2608.75 -995.65625 z "
       transform="translate(0,460.62743)"
       id="rect14332" />
    <path
       sodipodi:type="arc"
       style="fill:none;stroke:#000000;stroke-width:0.35433072;stroke-miterlimit:4;stroke-opacity:1;stroke-dasharray:none"
       id="path14454"
       sodipodi:cx="2471.4568"
       sodipodi:cy="-628.93707"
       sodipodi:rx="5.3150001"
       sodipodi:ry="5.3150001"
       d="m 2476.7718,-628.93707 a 5.3150001,5.3150001 0 1 1 -10.63,0 5.3150001,5.3150001 0 1 1 10.63,0 z"
       transform="translate(0,460.62743)" />
    <path
       sodipodi:type="arc"
       style="fill:none;stroke:#000000;stroke-width:0.35433072;stroke-miterlimit:4;stroke-opacity:1;stroke-dasharray:none"
       id="path14460"
       sodipodi:cx="2138.3857"
       sodipodi:cy="-628.93707"
       sodipodi:rx="5.31495"
       sodipodi:ry="5.3150001"
       d="m 2143.7007,-628.93707 a 5.31495,5.3150001 0 1 1 -10.6299,0 5.31495,5.3150001 0 1 1 10.6299,0 z"
       transform="translate(0,460.62743)" />
    <path
       sodipodi:type="arc"
       style="fill:none;stroke:#000000;stroke-width:0.35433072;stroke-miterlimit:4;stroke-opacity:1;stroke-dasharray:none"
       id="path14472"
       sodipodi:cx="1759.252"
       sodipodi:cy="-628.93707"
       sodipodi:rx="5.31495"
       sodipodi:ry="5.3150001"
       d="m 1764.5669,-628.93707 a 5.31495,5.3150001 0 1 1 -10.6299,0 5.31495,5.3150001 0 1 1 10.6299,0 z"
       transform="translate(0,460.62743)" />
    <path
       sodipodi:type="arc"
       style="fill:none;stroke:#000000;stroke-width:0.35433072;stroke-miterlimit:4;stroke-opacity:1;stroke-dasharray:none"
       id="path14482"
       sodipodi:cx="2471.4568"
       sodipodi:cy="-958.46472"
       sodipodi:rx="5.3150001"
       sodipodi:ry="5.31495"
       d="m 2476.7718,-958.46472 a 5.3150001,5.31495 0 1 1 -10.63,0 5.3150001,5.31495 0 1 1 10.63,0 z"
       transform="translate(0,460.62743)" />
    <path
       sodipodi:type="arc"
       style="fill:none;stroke:#000000;stroke-width:0.35433072;stroke-miterlimit:4;stroke-opacity:1;stroke-dasharray:none"
       id="path14486"
       sodipodi:cx="2138.3857"
       sodipodi:cy="-958.46472"
       sodipodi:rx="5.31495"
       sodipodi:ry="5.31495"
       d="m 2143.7007,-958.46472 a 5.31495,5.31495 0 1 1 -10.6299,0 5.31495,5.31495 0 1 1 10.6299,0 z"
       transform="translate(0,460.62743)" />
    <path
       sodipodi:type="arc"
       style="fill:none;stroke:#000000;stroke-width:0.35433072;stroke-miterlimit:4;stroke-opacity:1;stroke-dasharray:none"
       id="path14490"
       sodipodi:cx="1759.252"
       sodipodi:cy="-958.46472"
       sodipodi:rx="5.31495"
       sodipodi:ry="5.31495"
       d="m 1764.5669,-958.46472 a 5.31495,5.31495 0 1 1 -10.6299,0 5.31495,5.31495 0 1 1 10.6299,0 z"
       transform="translate(0,460.62743)" />
  </g>
  <g
     inkscape:groupmode="layer"
     id="layer3"
     inkscape:label="etches"
     style="display:inline"
     transform="translate(0,42.51964)" />
  <g
     inkscape:groupmode="layer"
     id="layer2"
     inkscape:label="non-cut outlines"
     transform="translate(0,51.732292)"
     style="display:none">
    <rect
       style="fill:none;stroke:#000000;stroke-width:0.68664789;stroke-miterlimit:4;stroke-opacity:1;stroke-dasharray:none"
       id="rect3392"
       width="54.389763"
       height="35.433071"
       x="14.173228"
       y="419.52756" />
    <rect
       style="fill:none;stroke:#000000;stroke-width:0.68664789;stroke-miterlimit:4;stroke-opacity:1;stroke-dasharray:none"
       id="rect3436"
       width="54.389763"
       height="35.433071"
       x="14.173228"
       y="29.763781" />
    <path
       sodipodi:type="arc"
       style="fill:none;stroke:#000000;stroke-width:0.70866144;stroke-miterlimit:4;stroke-opacity:1;stroke-dasharray:none"
       id="path3637"
       sodipodi:cx="300.29529"
       sodipodi:cy="134.91141"
       sodipodi:rx="62.893703"
       sodipodi:ry="64.931099"
       d="m 363.18899,134.91141 c 0,35.86045 -28.15847,64.9311 -62.8937,64.9311 -34.73524,0 -62.89371,-29.07065 -62.89371,-64.9311 0,-35.860458 28.15847,-64.931101 62.89371,-64.931101 34.73523,0 62.8937,29.070643 62.8937,64.931101 z"
       transform="matrix(1.0070421,0,0,0.97544336,-1.6718075,-48.24217)" />
    <rect
       style="fill:none;stroke:#000000;stroke-width:0.70866144;stroke-miterlimit:4;stroke-opacity:1;stroke-dasharray:none"
       id="rect3663"
       width="35.433079"
       height="54.389767"
       x="207.28346"
       y="9.0353975" />
    <rect
       style="fill:none;stroke:#000000;stroke-width:0.70866144;stroke-miterlimit:4;stroke-opacity:1;stroke-dasharray:none"
       id="rect3669"
       width="35.433079"
       height="54.389767"
       x="207.28346"
       y="474.44882"
       transform="translate(0,-53.14963)" />
    <rect
       style="fill:none;stroke:#000000;stroke-width:0.70866144;stroke-miterlimit:4;stroke-opacity:1;stroke-dasharray:none"
       id="rect3701"
       width="141.73228"
       height="177.16534"
       x="246.25984"
       y="206.92912"
       transform="translate(0,-53.14963)" />
    <path
       sodipodi:type="arc"
       style="fill:none;stroke:#000000;stroke-width:0.70866144;stroke-miterlimit:4;stroke-opacity:1;stroke-dasharray:none"
       id="path3705"
       sodipodi:cx="300.73819"
       sodipodi:cy="454.5177"
       sodipodi:rx="63.336617"
       sodipodi:ry="63.336613"
       d="m 364.07481,454.5177 c 0,34.97985 -28.35677,63.33661 -63.33662,63.33661 -34.97985,0 -63.33662,-28.35676 -63.33662,-63.33661 0,-34.97985 28.35677,-63.33661 63.33662,-63.33661 34.97985,0 63.33662,28.35676 63.33662,63.33661 z"
       transform="translate(0,-53.14963)" />
    <rect
       style="fill:none;stroke:#000000;stroke-width:0.70866144;stroke-miterlimit:4;stroke-opacity:1;stroke-dasharray:none"
       id="rect3725"
       width="54.389759"
       height="35.433071"
       x="350.69882"
       y="472.67715"
       transform="translate(0,-53.14963)" />
    <rect
       style="fill:none;stroke:#000000;stroke-width:0.70866144;stroke-miterlimit:4;stroke-opacity:1;stroke-dasharray:none"
       id="rect3729"
       width="54.301182"
       height="35.433071"
       x="350.78741"
       y="82.913376"
       transform="translate(0,-53.14963)" />
    <rect
       style="fill:none;stroke:#000000;stroke-width:0.70866144;stroke-miterlimit:4;stroke-opacity:1;stroke-dasharray:none"
       id="rect3759"
       width="54.354328"
       height="35.433071"
       x="425.19684"
       y="82.913376"
       transform="translate(0,-53.14963)" />
    <rect
       style="fill:none;stroke:#000000;stroke-width:0.70866144;stroke-miterlimit:4;stroke-opacity:1;stroke-dasharray:none"
       id="rect3761"
       width="54.354328"
       height="35.433071"
       x="425.19684"
       y="472.67715"
       transform="translate(0,-53.14963)" />
    <rect
       style="fill:none;stroke:#000000;stroke-width:0.70866144;stroke-miterlimit:4;stroke-opacity:1;stroke-dasharray:none"
       id="rect3781"
       width="54.389759"
       height="35.433071"
       x="577.55908"
       y="472.67715"
       transform="translate(0,-53.14963)" />
    <rect
       style="fill:none;stroke:#000000;stroke-width:0.70866144;stroke-miterlimit:4;stroke-opacity:1;stroke-dasharray:none"
       id="rect3801"
       width="54.389759"
       height="35.433071"
       x="577.55908"
       y="82.913376"
       transform="translate(0,-53.14963)" />
    <rect
       style="fill:none;stroke:#000000;stroke-width:0.73293769;stroke-miterlimit:4;stroke-opacity:1;stroke-dasharray:none"
       id="rect3803"
       width="35.433071"
       height="54.389771"
       x="531.49603"
       y="9.0353985" />
    <rect
       style="fill:none;stroke:#000000;stroke-width:0.70866144;stroke-miterlimit:4;stroke-opacity:1;stroke-dasharray:none"
       id="rect3820"
       width="35.433071"
       height="54.389767"
       x="531.49603"
       y="474.44882"
       transform="translate(0,-53.14963)" />
    <rect
       style="fill:none;stroke:#000000;stroke-width:0.70866144;stroke-miterlimit:4;stroke-opacity:1;stroke-dasharray:none"
       id="rect3832"
       width="35.433071"
       height="54.389771"
       x="683.85828"
       y="62.185028"
       transform="translate(0,-53.14963)" />
    <rect
       style="fill:none;stroke:#000000;stroke-width:0.70866144;stroke-miterlimit:4;stroke-opacity:1;stroke-dasharray:none"
       id="rect3834"
       width="35.433071"
       height="54.389767"
       x="683.85828"
       y="474.44882"
       transform="translate(0,-53.14963)" />
    <rect
       style="fill:none;stroke:#000000;stroke-width:0.70866144;stroke-miterlimit:4;stroke-opacity:1;stroke-dasharray:none"
       id="rect3852"
       width="35.433071"
       height="54.65551"
       x="836.22046"
       y="73.169289"
       transform="translate(0,-53.14963)" />
    <rect
       style="fill:none;stroke:#000000;stroke-width:0.70866144;stroke-miterlimit:4;stroke-opacity:1;stroke-dasharray:none"
       id="rect3870"
       width="35.433071"
       height="54.389759"
       x="836.22046"
       y="415.80707"
       transform="translate(0,-53.14963)" />
    <rect
       style="fill:none;stroke:#000000;stroke-width:0.70866144;stroke-miterlimit:4;stroke-opacity:1;stroke-dasharray:none"
       id="rect3898"
       width="54.389759"
       height="35.433071"
       x="729.92126"
       y="266.54526"
       transform="translate(0,-53.14963)" />
    <rect
       style="fill:none;stroke:#000000;stroke-width:0.70866144;stroke-miterlimit:4;stroke-opacity:1;stroke-dasharray:none"
       id="rect3902"
       width="35.433022"
       height="54.65551"
       x="988.5827"
       y="73.169289"
       transform="translate(0,-53.14963)" />
    <rect
       style="fill:none;stroke:#000000;stroke-width:0.70866144;stroke-miterlimit:4;stroke-opacity:1;stroke-dasharray:none"
       id="rect3904"
       width="35.433022"
       height="54.389759"
       x="988.5827"
       y="415.80707"
       transform="translate(0,-53.14963)" />
    <rect
       style="fill:none;stroke:#000000;stroke-width:0.70866144;stroke-miterlimit:4;stroke-opacity:1;stroke-dasharray:none"
       id="rect3922"
       width="54.389771"
       height="35.433071"
       x="882.28345"
       y="266.54526"
       transform="translate(0,-53.14963)" />
    <rect
       style="fill:none;stroke:#000000;stroke-width:0.70866144;stroke-miterlimit:4;stroke-opacity:1;stroke-dasharray:none"
       id="rect3928"
       width="54.301182"
       height="35.433071"
       x="817.35236"
       y="266.54526"
       transform="translate(0,-53.14963)" />
    <rect
       style="fill:none;stroke:#000000;stroke-width:0.70866144;stroke-miterlimit:4;stroke-opacity:1;stroke-dasharray:none"
       id="rect3940"
       width="54.301128"
       height="35.433071"
       x="969.7146"
       y="266.54526"
       transform="translate(0,-53.14963)" />
  </g>
</svg>
